G04 #@! TF.GenerationSoftware,KiCad,Pcbnew,7.0.10*
G04 #@! TF.CreationDate,2024-02-05T22:52:07+01:00*
G04 #@! TF.ProjectId,PowerPCB,506f7765-7250-4434-922e-6b696361645f,rev?*
G04 #@! TF.SameCoordinates,Original*
G04 #@! TF.FileFunction,Copper,L2,Bot*
G04 #@! TF.FilePolarity,Positive*
%FSLAX46Y46*%
G04 Gerber Fmt 4.6, Leading zero omitted, Abs format (unit mm)*
G04 Created by KiCad (PCBNEW 7.0.10) date 2024-02-05 22:52:07*
%MOMM*%
%LPD*%
G01*
G04 APERTURE LIST*
G04 Aperture macros list*
%AMRoundRect*
0 Rectangle with rounded corners*
0 $1 Rounding radius*
0 $2 $3 $4 $5 $6 $7 $8 $9 X,Y pos of 4 corners*
0 Add a 4 corners polygon primitive as box body*
4,1,4,$2,$3,$4,$5,$6,$7,$8,$9,$2,$3,0*
0 Add four circle primitives for the rounded corners*
1,1,$1+$1,$2,$3*
1,1,$1+$1,$4,$5*
1,1,$1+$1,$6,$7*
1,1,$1+$1,$8,$9*
0 Add four rect primitives between the rounded corners*
20,1,$1+$1,$2,$3,$4,$5,0*
20,1,$1+$1,$4,$5,$6,$7,0*
20,1,$1+$1,$6,$7,$8,$9,0*
20,1,$1+$1,$8,$9,$2,$3,0*%
G04 Aperture macros list end*
G04 #@! TA.AperFunction,ComponentPad*
%ADD10R,1.500000X1.500000*%
G04 #@! TD*
G04 #@! TA.AperFunction,ComponentPad*
%ADD11RoundRect,0.250000X0.600000X0.750000X-0.600000X0.750000X-0.600000X-0.750000X0.600000X-0.750000X0*%
G04 #@! TD*
G04 #@! TA.AperFunction,ComponentPad*
%ADD12O,1.700000X2.000000*%
G04 #@! TD*
G04 #@! TA.AperFunction,ComponentPad*
%ADD13RoundRect,0.250001X0.759999X-0.499999X0.759999X0.499999X-0.759999X0.499999X-0.759999X-0.499999X0*%
G04 #@! TD*
G04 #@! TA.AperFunction,ComponentPad*
%ADD14O,2.020000X1.500000*%
G04 #@! TD*
G04 #@! TA.AperFunction,ComponentPad*
%ADD15R,1.700000X1.700000*%
G04 #@! TD*
G04 #@! TA.AperFunction,ComponentPad*
%ADD16O,1.700000X1.700000*%
G04 #@! TD*
G04 #@! TA.AperFunction,ViaPad*
%ADD17C,0.600000*%
G04 #@! TD*
G04 #@! TA.AperFunction,Conductor*
%ADD18C,0.600000*%
G04 #@! TD*
G04 APERTURE END LIST*
D10*
X113462000Y-61900000D03*
D11*
X121570000Y-60393000D03*
D12*
X119070000Y-60393000D03*
D13*
X109654000Y-60074000D03*
D14*
X109654000Y-57074000D03*
X109654000Y-54074000D03*
D15*
X108382000Y-48692000D03*
D16*
X108382000Y-46152000D03*
X110922000Y-48692000D03*
X110922000Y-46152000D03*
X113462000Y-48692000D03*
X113462000Y-46152000D03*
X116002000Y-48692000D03*
X116002000Y-46152000D03*
X118542000Y-48692000D03*
X118542000Y-46152000D03*
X121082000Y-48692000D03*
X121082000Y-46152000D03*
D17*
X117018000Y-53010000D03*
D18*
X113450000Y-48770000D02*
X113655370Y-48770000D01*
G04 #@! TA.AperFunction,Conductor*
G36*
X125174853Y-44050881D02*
G01*
X125387028Y-44067580D01*
X125406237Y-44070623D01*
X125608437Y-44119167D01*
X125626930Y-44125176D01*
X125784353Y-44190382D01*
X125819044Y-44204752D01*
X125836381Y-44213586D01*
X126013672Y-44322230D01*
X126029414Y-44333667D01*
X126187530Y-44468711D01*
X126201288Y-44482469D01*
X126336332Y-44640585D01*
X126347769Y-44656327D01*
X126456413Y-44833618D01*
X126465247Y-44850955D01*
X126544821Y-45043063D01*
X126550834Y-45061569D01*
X126599375Y-45263757D01*
X126602419Y-45282975D01*
X126619118Y-45495146D01*
X126619500Y-45504875D01*
X126619500Y-62934284D01*
X126619045Y-62944896D01*
X126600897Y-63156172D01*
X126597763Y-63175177D01*
X126548153Y-63376874D01*
X126542114Y-63395164D01*
X126461866Y-63586747D01*
X126453067Y-63603881D01*
X126344113Y-63780731D01*
X126332766Y-63796296D01*
X126197748Y-63954128D01*
X126184128Y-63967748D01*
X126026296Y-64102766D01*
X126010731Y-64114113D01*
X125833881Y-64223067D01*
X125816747Y-64231866D01*
X125625164Y-64312114D01*
X125606874Y-64318153D01*
X125405177Y-64367763D01*
X125386172Y-64370897D01*
X125174896Y-64389045D01*
X125164284Y-64389500D01*
X103003481Y-64389500D01*
X102996528Y-64389305D01*
X102676712Y-64371344D01*
X102662894Y-64369787D01*
X102350542Y-64316716D01*
X102336985Y-64313622D01*
X102032530Y-64225910D01*
X102019406Y-64221317D01*
X101726695Y-64100073D01*
X101714166Y-64094040D01*
X101436860Y-63940778D01*
X101425094Y-63933385D01*
X101166687Y-63750035D01*
X101155825Y-63741372D01*
X100919581Y-63530250D01*
X100909749Y-63520418D01*
X100698627Y-63284174D01*
X100689966Y-63273314D01*
X100506611Y-63014900D01*
X100499221Y-63003139D01*
X100345955Y-62725826D01*
X100339926Y-62713304D01*
X100323927Y-62674678D01*
X112461500Y-62674678D01*
X112476032Y-62747735D01*
X112476033Y-62747739D01*
X112476034Y-62747740D01*
X112531399Y-62830601D01*
X112614260Y-62885966D01*
X112614264Y-62885967D01*
X112687321Y-62900499D01*
X112687324Y-62900500D01*
X112687326Y-62900500D01*
X114236676Y-62900500D01*
X114236677Y-62900499D01*
X114309740Y-62885966D01*
X114392601Y-62830601D01*
X114447966Y-62747740D01*
X114462500Y-62674674D01*
X114462500Y-61125326D01*
X114462500Y-61125323D01*
X114462499Y-61125321D01*
X114447967Y-61052264D01*
X114447966Y-61052260D01*
X114424938Y-61017796D01*
X114392601Y-60969399D01*
X114309740Y-60914034D01*
X114309739Y-60914033D01*
X114309735Y-60914032D01*
X114236677Y-60899500D01*
X114236674Y-60899500D01*
X112687326Y-60899500D01*
X112687323Y-60899500D01*
X112614264Y-60914032D01*
X112614260Y-60914033D01*
X112531399Y-60969399D01*
X112476033Y-61052260D01*
X112476032Y-61052264D01*
X112461500Y-61125321D01*
X112461500Y-62674678D01*
X100323927Y-62674678D01*
X100218682Y-62420593D01*
X100214089Y-62407469D01*
X100126377Y-62103014D01*
X100123283Y-62089457D01*
X100094127Y-61917858D01*
X100070210Y-61777094D01*
X100068656Y-61763297D01*
X100050695Y-61443472D01*
X100050500Y-61436519D01*
X100050500Y-60621863D01*
X108393500Y-60621863D01*
X108393501Y-60621882D01*
X108399908Y-60681481D01*
X108450202Y-60816327D01*
X108450203Y-60816328D01*
X108450204Y-60816330D01*
X108536454Y-60931546D01*
X108651670Y-61017796D01*
X108651671Y-61017796D01*
X108651672Y-61017797D01*
X108786518Y-61068091D01*
X108786517Y-61068091D01*
X108793445Y-61068835D01*
X108846128Y-61074500D01*
X108846137Y-61074500D01*
X110461863Y-61074500D01*
X110461872Y-61074500D01*
X110521482Y-61068091D01*
X110656330Y-61017796D01*
X110771546Y-60931546D01*
X110857796Y-60816330D01*
X110908091Y-60681482D01*
X110914500Y-60621872D01*
X110914500Y-60595425D01*
X117969500Y-60595425D01*
X117984472Y-60752218D01*
X118043684Y-60953875D01*
X118076638Y-61017797D01*
X118139991Y-61140686D01*
X118269905Y-61305883D01*
X118269909Y-61305887D01*
X118428746Y-61443521D01*
X118610750Y-61548601D01*
X118610752Y-61548601D01*
X118610756Y-61548604D01*
X118809367Y-61617344D01*
X119017398Y-61647254D01*
X119227330Y-61637254D01*
X119431576Y-61587704D01*
X119517199Y-61548601D01*
X119622743Y-61500401D01*
X119622746Y-61500399D01*
X119622753Y-61500396D01*
X119793952Y-61378486D01*
X119863179Y-61305883D01*
X119938985Y-61226379D01*
X119961797Y-61190883D01*
X119961805Y-61190870D01*
X120469500Y-61190870D01*
X120469501Y-61190876D01*
X120475908Y-61250483D01*
X120526202Y-61385328D01*
X120526206Y-61385335D01*
X120612452Y-61500544D01*
X120612455Y-61500547D01*
X120727664Y-61586793D01*
X120727671Y-61586797D01*
X120862517Y-61637091D01*
X120862516Y-61637091D01*
X120869444Y-61637835D01*
X120922127Y-61643500D01*
X122217872Y-61643499D01*
X122277483Y-61637091D01*
X122412331Y-61586796D01*
X122527546Y-61500546D01*
X122613796Y-61385331D01*
X122664091Y-61250483D01*
X122670500Y-61190873D01*
X122670499Y-59595128D01*
X122664091Y-59535517D01*
X122643426Y-59480112D01*
X122613797Y-59400671D01*
X122613793Y-59400664D01*
X122527547Y-59285455D01*
X122527544Y-59285452D01*
X122412335Y-59199206D01*
X122412328Y-59199202D01*
X122277482Y-59148908D01*
X122277483Y-59148908D01*
X122217883Y-59142501D01*
X122217881Y-59142500D01*
X122217873Y-59142500D01*
X122217864Y-59142500D01*
X120922129Y-59142500D01*
X120922123Y-59142501D01*
X120862516Y-59148908D01*
X120727671Y-59199202D01*
X120727664Y-59199206D01*
X120612455Y-59285452D01*
X120612452Y-59285455D01*
X120526206Y-59400664D01*
X120526202Y-59400671D01*
X120475908Y-59535517D01*
X120473317Y-59559622D01*
X120469501Y-59595123D01*
X120469500Y-59595135D01*
X120469500Y-61190870D01*
X119961805Y-61190870D01*
X120052613Y-61049572D01*
X120130725Y-60854457D01*
X120170500Y-60648085D01*
X120170500Y-60190575D01*
X120155528Y-60033782D01*
X120096316Y-59832125D01*
X120000011Y-59645318D01*
X120000009Y-59645316D01*
X120000008Y-59645313D01*
X119870094Y-59480116D01*
X119870090Y-59480112D01*
X119711253Y-59342478D01*
X119529249Y-59237398D01*
X119529245Y-59237396D01*
X119529244Y-59237396D01*
X119330633Y-59168656D01*
X119122602Y-59138746D01*
X119122598Y-59138746D01*
X118912672Y-59148745D01*
X118708421Y-59198296D01*
X118708417Y-59198298D01*
X118517256Y-59285598D01*
X118517251Y-59285601D01*
X118346046Y-59407515D01*
X118346040Y-59407520D01*
X118201014Y-59559620D01*
X118087388Y-59736425D01*
X118009274Y-59931544D01*
X117989570Y-60033782D01*
X117969500Y-60137915D01*
X117969500Y-60595425D01*
X110914500Y-60595425D01*
X110914500Y-59526128D01*
X110908091Y-59466518D01*
X110857796Y-59331670D01*
X110771546Y-59216454D01*
X110656330Y-59130204D01*
X110656328Y-59130203D01*
X110656327Y-59130202D01*
X110521481Y-59079908D01*
X110521482Y-59079908D01*
X110461882Y-59073501D01*
X110461880Y-59073500D01*
X110461872Y-59073500D01*
X108846128Y-59073500D01*
X108846120Y-59073500D01*
X108846117Y-59073501D01*
X108786518Y-59079908D01*
X108651672Y-59130202D01*
X108651670Y-59130204D01*
X108536454Y-59216454D01*
X108450204Y-59331670D01*
X108450202Y-59331672D01*
X108399908Y-59466518D01*
X108393501Y-59526117D01*
X108393500Y-59526136D01*
X108393500Y-60621863D01*
X100050500Y-60621863D01*
X100050500Y-57205187D01*
X103583500Y-57205187D01*
X103601720Y-57326063D01*
X103622604Y-57464615D01*
X103622605Y-57464617D01*
X103622606Y-57464623D01*
X103699938Y-57715326D01*
X103813767Y-57951696D01*
X103813768Y-57951697D01*
X103813770Y-57951700D01*
X103813772Y-57951704D01*
X103814857Y-57953295D01*
X103961567Y-58168479D01*
X104140014Y-58360801D01*
X104140018Y-58360804D01*
X104140019Y-58360805D01*
X104345143Y-58524386D01*
X104572357Y-58655568D01*
X104816584Y-58751420D01*
X105072370Y-58809802D01*
X105072376Y-58809802D01*
X105072379Y-58809803D01*
X105268484Y-58824499D01*
X105268503Y-58824499D01*
X105268506Y-58824500D01*
X105268508Y-58824500D01*
X105399492Y-58824500D01*
X105399494Y-58824500D01*
X105399496Y-58824499D01*
X105399515Y-58824499D01*
X105595620Y-58809803D01*
X105595622Y-58809802D01*
X105595630Y-58809802D01*
X105851416Y-58751420D01*
X106095643Y-58655568D01*
X106322857Y-58524386D01*
X106527981Y-58360805D01*
X106706433Y-58168479D01*
X106854228Y-57951704D01*
X106968063Y-57715323D01*
X107045396Y-57464615D01*
X107084500Y-57205182D01*
X107084500Y-57124936D01*
X108389631Y-57124936D01*
X108420442Y-57326063D01*
X108420445Y-57326075D01*
X108491111Y-57516881D01*
X108491115Y-57516888D01*
X108598745Y-57689567D01*
X108598747Y-57689569D01*
X108598748Y-57689571D01*
X108738941Y-57837053D01*
X108867344Y-57926424D01*
X108905949Y-57953294D01*
X108905950Y-57953294D01*
X108905951Y-57953295D01*
X109092942Y-58033540D01*
X109292259Y-58074500D01*
X109964743Y-58074500D01*
X110116439Y-58059074D01*
X110310579Y-57998162D01*
X110310580Y-57998161D01*
X110310588Y-57998159D01*
X110488502Y-57899409D01*
X110642895Y-57766866D01*
X110767448Y-57605958D01*
X110857060Y-57423271D01*
X110908063Y-57226285D01*
X110918369Y-57023064D01*
X110887556Y-56821929D01*
X110816886Y-56631113D01*
X110709252Y-56458429D01*
X110569059Y-56310947D01*
X110470587Y-56242409D01*
X110402050Y-56194705D01*
X110215056Y-56114459D01*
X110015741Y-56073500D01*
X109343258Y-56073500D01*
X109343257Y-56073500D01*
X109191560Y-56088925D01*
X108997420Y-56149837D01*
X108997405Y-56149844D01*
X108819500Y-56248589D01*
X108819495Y-56248592D01*
X108665106Y-56381132D01*
X108665104Y-56381134D01*
X108540554Y-56542037D01*
X108540553Y-56542040D01*
X108450940Y-56724728D01*
X108399937Y-56921714D01*
X108389631Y-57124936D01*
X107084500Y-57124936D01*
X107084500Y-56942818D01*
X107045396Y-56683385D01*
X106968063Y-56432677D01*
X106909442Y-56310949D01*
X106854232Y-56196303D01*
X106854231Y-56196302D01*
X106854230Y-56196301D01*
X106854228Y-56196296D01*
X106706433Y-55979521D01*
X106696441Y-55968753D01*
X106527985Y-55787198D01*
X106488533Y-55755736D01*
X106322857Y-55623614D01*
X106095643Y-55492432D01*
X105851416Y-55396580D01*
X105851411Y-55396578D01*
X105851402Y-55396576D01*
X105633818Y-55346914D01*
X105595630Y-55338198D01*
X105595629Y-55338197D01*
X105595625Y-55338197D01*
X105595620Y-55338196D01*
X105399515Y-55323500D01*
X105399494Y-55323500D01*
X105268506Y-55323500D01*
X105268484Y-55323500D01*
X105072379Y-55338196D01*
X105072374Y-55338197D01*
X104816597Y-55396576D01*
X104816578Y-55396582D01*
X104572356Y-55492432D01*
X104345143Y-55623614D01*
X104140014Y-55787198D01*
X103961567Y-55979520D01*
X103813768Y-56196302D01*
X103813767Y-56196303D01*
X103699938Y-56432673D01*
X103622606Y-56683376D01*
X103622605Y-56683381D01*
X103622604Y-56683385D01*
X103607853Y-56781247D01*
X103583500Y-56942812D01*
X103583500Y-57205187D01*
X100050500Y-57205187D01*
X100050500Y-54324000D01*
X108166449Y-54324000D01*
X108170415Y-54353278D01*
X108239945Y-54567268D01*
X108346565Y-54765401D01*
X108346567Y-54765404D01*
X108486854Y-54941320D01*
X108656292Y-55089352D01*
X108656300Y-55089359D01*
X108849446Y-55204759D01*
X108849451Y-55204761D01*
X109060110Y-55283824D01*
X109281494Y-55324000D01*
X109404000Y-55324000D01*
X109404000Y-54520494D01*
X109508839Y-54568373D01*
X109617527Y-54584000D01*
X109690473Y-54584000D01*
X109799161Y-54568373D01*
X109904000Y-54520494D01*
X109904000Y-55324000D01*
X109970126Y-55324000D01*
X109970129Y-55323999D01*
X110138096Y-55308883D01*
X110138102Y-55308882D01*
X110354984Y-55249026D01*
X110354997Y-55249021D01*
X110557708Y-55151401D01*
X110557716Y-55151397D01*
X110739741Y-55019148D01*
X110739749Y-55019142D01*
X110895237Y-54856513D01*
X111019191Y-54668733D01*
X111107624Y-54461830D01*
X111107627Y-54461821D01*
X111139084Y-54324000D01*
X110099572Y-54324000D01*
X110122682Y-54288040D01*
X110164000Y-54147327D01*
X110164000Y-54000673D01*
X110122682Y-53859960D01*
X110099572Y-53824000D01*
X111141550Y-53824000D01*
X111141550Y-53823999D01*
X111137584Y-53794721D01*
X111068054Y-53580731D01*
X110961434Y-53382598D01*
X110961432Y-53382595D01*
X110821145Y-53206679D01*
X110651707Y-53058647D01*
X110651699Y-53058640D01*
X110458553Y-52943240D01*
X110458548Y-52943238D01*
X110247889Y-52864175D01*
X110026506Y-52824000D01*
X109904000Y-52824000D01*
X109904000Y-53627505D01*
X109799161Y-53579627D01*
X109690473Y-53564000D01*
X109617527Y-53564000D01*
X109508839Y-53579627D01*
X109404000Y-53627505D01*
X109404000Y-52824000D01*
X109337870Y-52824000D01*
X109169903Y-52839116D01*
X109169897Y-52839117D01*
X108953015Y-52898973D01*
X108953002Y-52898978D01*
X108750291Y-52996598D01*
X108750283Y-52996602D01*
X108568258Y-53128851D01*
X108568250Y-53128857D01*
X108412762Y-53291486D01*
X108288808Y-53479266D01*
X108200375Y-53686169D01*
X108200372Y-53686178D01*
X108168915Y-53823999D01*
X108168916Y-53824000D01*
X109208428Y-53824000D01*
X109185318Y-53859960D01*
X109144000Y-54000673D01*
X109144000Y-54147327D01*
X109185318Y-54288040D01*
X109208428Y-54324000D01*
X108166449Y-54324000D01*
X100050500Y-54324000D01*
X100050500Y-47643678D01*
X101399500Y-47643678D01*
X101413325Y-47744264D01*
X101438629Y-47928357D01*
X101438630Y-47928364D01*
X101479877Y-48075578D01*
X101516156Y-48205058D01*
X101516157Y-48205061D01*
X101516158Y-48205063D01*
X101516158Y-48205064D01*
X101630634Y-48468617D01*
X101658529Y-48514489D01*
X101779945Y-48714147D01*
X101961292Y-48937053D01*
X102087105Y-49054554D01*
X102171299Y-49133187D01*
X102171302Y-49133189D01*
X102406064Y-49298901D01*
X102661203Y-49431104D01*
X102931968Y-49527334D01*
X103213314Y-49585798D01*
X103428248Y-49600500D01*
X103428255Y-49600500D01*
X103571745Y-49600500D01*
X103571752Y-49600500D01*
X103786686Y-49585798D01*
X103878697Y-49566678D01*
X107281500Y-49566678D01*
X107296032Y-49639735D01*
X107296033Y-49639739D01*
X107296034Y-49639740D01*
X107351399Y-49722601D01*
X107434260Y-49777966D01*
X107434264Y-49777967D01*
X107507321Y-49792499D01*
X107507324Y-49792500D01*
X107507326Y-49792500D01*
X109256676Y-49792500D01*
X109256677Y-49792499D01*
X109329740Y-49777966D01*
X109412601Y-49722601D01*
X109467966Y-49639740D01*
X109482500Y-49566674D01*
X109482500Y-48692000D01*
X109816785Y-48692000D01*
X109835602Y-48895082D01*
X109891417Y-49091247D01*
X109891422Y-49091260D01*
X109982327Y-49273821D01*
X110105237Y-49436581D01*
X110255958Y-49573980D01*
X110255960Y-49573982D01*
X110355141Y-49635392D01*
X110429363Y-49681348D01*
X110619544Y-49755024D01*
X110820024Y-49792500D01*
X110820026Y-49792500D01*
X111023974Y-49792500D01*
X111023976Y-49792500D01*
X111224456Y-49755024D01*
X111414637Y-49681348D01*
X111588041Y-49573981D01*
X111738764Y-49436579D01*
X111861673Y-49273821D01*
X111952582Y-49091250D01*
X112008397Y-48895083D01*
X112027215Y-48692000D01*
X112008397Y-48488917D01*
X111952582Y-48292750D01*
X111937274Y-48262008D01*
X111902415Y-48192000D01*
X111861673Y-48110179D01*
X111738764Y-47947421D01*
X111738762Y-47947418D01*
X111588041Y-47810019D01*
X111588039Y-47810017D01*
X111414642Y-47702655D01*
X111414635Y-47702651D01*
X111288769Y-47653891D01*
X111224456Y-47628976D01*
X111023976Y-47591500D01*
X110820024Y-47591500D01*
X110619544Y-47628976D01*
X110619541Y-47628976D01*
X110619541Y-47628977D01*
X110429364Y-47702651D01*
X110429357Y-47702655D01*
X110255960Y-47810017D01*
X110255958Y-47810019D01*
X110105237Y-47947418D01*
X109982327Y-48110178D01*
X109891422Y-48292739D01*
X109891417Y-48292752D01*
X109835602Y-48488917D01*
X109816785Y-48691999D01*
X109816785Y-48692000D01*
X109482500Y-48692000D01*
X109482500Y-47817326D01*
X109482500Y-47817323D01*
X109482499Y-47817321D01*
X109467967Y-47744264D01*
X109467966Y-47744260D01*
X109412601Y-47661399D01*
X109329740Y-47606034D01*
X109329739Y-47606033D01*
X109329735Y-47606032D01*
X109256677Y-47591500D01*
X109256674Y-47591500D01*
X107507326Y-47591500D01*
X107507323Y-47591500D01*
X107434264Y-47606032D01*
X107434260Y-47606033D01*
X107351399Y-47661399D01*
X107296033Y-47744260D01*
X107296032Y-47744264D01*
X107281500Y-47817321D01*
X107281500Y-49566678D01*
X103878697Y-49566678D01*
X104068032Y-49527334D01*
X104338797Y-49431104D01*
X104593936Y-49298901D01*
X104828698Y-49133189D01*
X105038708Y-48937053D01*
X105220055Y-48714147D01*
X105369361Y-48468625D01*
X105369363Y-48468620D01*
X105369365Y-48468617D01*
X105473657Y-48228511D01*
X105483844Y-48205058D01*
X105561371Y-47928358D01*
X105600500Y-47643678D01*
X105600500Y-47356322D01*
X105561371Y-47071642D01*
X105483844Y-46794942D01*
X105483841Y-46794935D01*
X105369365Y-46531382D01*
X105350338Y-46500094D01*
X105220055Y-46285853D01*
X105111158Y-46152000D01*
X107276785Y-46152000D01*
X107295602Y-46355082D01*
X107351417Y-46551247D01*
X107351422Y-46551260D01*
X107442327Y-46733821D01*
X107565237Y-46896581D01*
X107715958Y-47033980D01*
X107715960Y-47033982D01*
X107815141Y-47095392D01*
X107889363Y-47141348D01*
X108079544Y-47215024D01*
X108280024Y-47252500D01*
X108280026Y-47252500D01*
X108483974Y-47252500D01*
X108483976Y-47252500D01*
X108684456Y-47215024D01*
X108874637Y-47141348D01*
X109048041Y-47033981D01*
X109198764Y-46896579D01*
X109321673Y-46733821D01*
X109412582Y-46551250D01*
X109468397Y-46355083D01*
X109487215Y-46152000D01*
X109816785Y-46152000D01*
X109835602Y-46355082D01*
X109891417Y-46551247D01*
X109891422Y-46551260D01*
X109982327Y-46733821D01*
X110105237Y-46896581D01*
X110255958Y-47033980D01*
X110255960Y-47033982D01*
X110355141Y-47095392D01*
X110429363Y-47141348D01*
X110619544Y-47215024D01*
X110820024Y-47252500D01*
X110820026Y-47252500D01*
X111023974Y-47252500D01*
X111023976Y-47252500D01*
X111224456Y-47215024D01*
X111414637Y-47141348D01*
X111588041Y-47033981D01*
X111738764Y-46896579D01*
X111861673Y-46733821D01*
X111923598Y-46609456D01*
X111948817Y-46558812D01*
X111996319Y-46507575D01*
X112063982Y-46490153D01*
X112130323Y-46512078D01*
X112174278Y-46566389D01*
X112179592Y-46581989D01*
X112188567Y-46615485D01*
X112188570Y-46615492D01*
X112288399Y-46829578D01*
X112423894Y-47023082D01*
X112590917Y-47190105D01*
X112784421Y-47325600D01*
X112998507Y-47425429D01*
X112998516Y-47425433D01*
X113037583Y-47435901D01*
X113097244Y-47472266D01*
X113127773Y-47535113D01*
X113119479Y-47604488D01*
X113074993Y-47658366D01*
X113050284Y-47671302D01*
X112969373Y-47702647D01*
X112969357Y-47702655D01*
X112795960Y-47810017D01*
X112795958Y-47810019D01*
X112645237Y-47947418D01*
X112522327Y-48110178D01*
X112431422Y-48292739D01*
X112431417Y-48292752D01*
X112375602Y-48488917D01*
X112356785Y-48691999D01*
X112356785Y-48692000D01*
X112375602Y-48895082D01*
X112431417Y-49091247D01*
X112431422Y-49091260D01*
X112522327Y-49273821D01*
X112645237Y-49436581D01*
X112795958Y-49573980D01*
X112795960Y-49573982D01*
X112895141Y-49635392D01*
X112969363Y-49681348D01*
X113159544Y-49755024D01*
X113360024Y-49792500D01*
X113360026Y-49792500D01*
X113563974Y-49792500D01*
X113563976Y-49792500D01*
X113764456Y-49755024D01*
X113954637Y-49681348D01*
X114128041Y-49573981D01*
X114278764Y-49436579D01*
X114401673Y-49273821D01*
X114492582Y-49091250D01*
X114548397Y-48895083D01*
X114567215Y-48692000D01*
X114896785Y-48692000D01*
X114915602Y-48895082D01*
X114971417Y-49091247D01*
X114971422Y-49091260D01*
X115062327Y-49273821D01*
X115185237Y-49436581D01*
X115335958Y-49573980D01*
X115335960Y-49573982D01*
X115435141Y-49635392D01*
X115509363Y-49681348D01*
X115699544Y-49755024D01*
X115900024Y-49792500D01*
X115900026Y-49792500D01*
X116103974Y-49792500D01*
X116103976Y-49792500D01*
X116304456Y-49755024D01*
X116494637Y-49681348D01*
X116668041Y-49573981D01*
X116818764Y-49436579D01*
X116941673Y-49273821D01*
X117011700Y-49133187D01*
X117028817Y-49098812D01*
X117076319Y-49047575D01*
X117143982Y-49030153D01*
X117210323Y-49052078D01*
X117254278Y-49106389D01*
X117259592Y-49121989D01*
X117268567Y-49155485D01*
X117268570Y-49155492D01*
X117368399Y-49369578D01*
X117503894Y-49563082D01*
X117670917Y-49730105D01*
X117864421Y-49865600D01*
X118078507Y-49965429D01*
X118078516Y-49965433D01*
X118292000Y-50022634D01*
X118292000Y-49127501D01*
X118399685Y-49176680D01*
X118506237Y-49192000D01*
X118577763Y-49192000D01*
X118684315Y-49176680D01*
X118792000Y-49127501D01*
X118792000Y-50022633D01*
X119005483Y-49965433D01*
X119005492Y-49965429D01*
X119219578Y-49865600D01*
X119413082Y-49730105D01*
X119580105Y-49563082D01*
X119715600Y-49369578D01*
X119815429Y-49155492D01*
X119815431Y-49155489D01*
X119824406Y-49121992D01*
X119860770Y-49062331D01*
X119923616Y-49031800D01*
X119992992Y-49040094D01*
X120046871Y-49084578D01*
X120055182Y-49098811D01*
X120142327Y-49273821D01*
X120265237Y-49436581D01*
X120415958Y-49573980D01*
X120415960Y-49573982D01*
X120515141Y-49635392D01*
X120589363Y-49681348D01*
X120779544Y-49755024D01*
X120980024Y-49792500D01*
X120980026Y-49792500D01*
X121183974Y-49792500D01*
X121183976Y-49792500D01*
X121384456Y-49755024D01*
X121574637Y-49681348D01*
X121748041Y-49573981D01*
X121898764Y-49436579D01*
X122021673Y-49273821D01*
X122112582Y-49091250D01*
X122168397Y-48895083D01*
X122187215Y-48692000D01*
X122168397Y-48488917D01*
X122112582Y-48292750D01*
X122097274Y-48262008D01*
X122062415Y-48192000D01*
X122021673Y-48110179D01*
X121898764Y-47947421D01*
X121898762Y-47947418D01*
X121748041Y-47810019D01*
X121748039Y-47810017D01*
X121574642Y-47702655D01*
X121574635Y-47702651D01*
X121448769Y-47653891D01*
X121384456Y-47628976D01*
X121183976Y-47591500D01*
X120980024Y-47591500D01*
X120779544Y-47628976D01*
X120779541Y-47628976D01*
X120779541Y-47628977D01*
X120589364Y-47702651D01*
X120589357Y-47702655D01*
X120415960Y-47810017D01*
X120415958Y-47810019D01*
X120265237Y-47947418D01*
X120142327Y-48110178D01*
X120055182Y-48285188D01*
X120007679Y-48336425D01*
X119940016Y-48353846D01*
X119873676Y-48331920D01*
X119829721Y-48277609D01*
X119824407Y-48262008D01*
X119815434Y-48228518D01*
X119815429Y-48228507D01*
X119715600Y-48014422D01*
X119715599Y-48014420D01*
X119580113Y-47820926D01*
X119580108Y-47820920D01*
X119413082Y-47653894D01*
X119219578Y-47518399D01*
X119005492Y-47418570D01*
X119005477Y-47418564D01*
X118966414Y-47408097D01*
X118906754Y-47371732D01*
X118876226Y-47308885D01*
X118884521Y-47239509D01*
X118929007Y-47185632D01*
X118953710Y-47172698D01*
X119034637Y-47141348D01*
X119208041Y-47033981D01*
X119358764Y-46896579D01*
X119481673Y-46733821D01*
X119572582Y-46551250D01*
X119628397Y-46355083D01*
X119647215Y-46152000D01*
X119976785Y-46152000D01*
X119995602Y-46355082D01*
X120051417Y-46551247D01*
X120051422Y-46551260D01*
X120142327Y-46733821D01*
X120265237Y-46896581D01*
X120415958Y-47033980D01*
X120415960Y-47033982D01*
X120515141Y-47095392D01*
X120589363Y-47141348D01*
X120779544Y-47215024D01*
X120980024Y-47252500D01*
X120980026Y-47252500D01*
X121183974Y-47252500D01*
X121183976Y-47252500D01*
X121384456Y-47215024D01*
X121574637Y-47141348D01*
X121748041Y-47033981D01*
X121898764Y-46896579D01*
X122021673Y-46733821D01*
X122112582Y-46551250D01*
X122168397Y-46355083D01*
X122187215Y-46152000D01*
X122178963Y-46062950D01*
X122168397Y-45948917D01*
X122145036Y-45866812D01*
X122112582Y-45752750D01*
X122099608Y-45726695D01*
X122043096Y-45613202D01*
X122021673Y-45570179D01*
X121898764Y-45407421D01*
X121898762Y-45407418D01*
X121748041Y-45270019D01*
X121748039Y-45270017D01*
X121574642Y-45162655D01*
X121574635Y-45162651D01*
X121448769Y-45113891D01*
X121384456Y-45088976D01*
X121183976Y-45051500D01*
X120980024Y-45051500D01*
X120779544Y-45088976D01*
X120779541Y-45088976D01*
X120779541Y-45088977D01*
X120589364Y-45162651D01*
X120589357Y-45162655D01*
X120415960Y-45270017D01*
X120415958Y-45270019D01*
X120265237Y-45407418D01*
X120142327Y-45570178D01*
X120051422Y-45752739D01*
X120051417Y-45752752D01*
X119995602Y-45948917D01*
X119976785Y-46151999D01*
X119976785Y-46152000D01*
X119647215Y-46152000D01*
X119638963Y-46062950D01*
X119628397Y-45948917D01*
X119605036Y-45866812D01*
X119572582Y-45752750D01*
X119559608Y-45726695D01*
X119503096Y-45613202D01*
X119481673Y-45570179D01*
X119358764Y-45407421D01*
X119358762Y-45407418D01*
X119208041Y-45270019D01*
X119208039Y-45270017D01*
X119034642Y-45162655D01*
X119034635Y-45162651D01*
X118908769Y-45113891D01*
X118844456Y-45088976D01*
X118643976Y-45051500D01*
X118440024Y-45051500D01*
X118239544Y-45088976D01*
X118239541Y-45088976D01*
X118239541Y-45088977D01*
X118049364Y-45162651D01*
X118049357Y-45162655D01*
X117875960Y-45270017D01*
X117875958Y-45270019D01*
X117725237Y-45407418D01*
X117602327Y-45570178D01*
X117511422Y-45752739D01*
X117511417Y-45752752D01*
X117455602Y-45948917D01*
X117436785Y-46151999D01*
X117436785Y-46152000D01*
X117455602Y-46355082D01*
X117511417Y-46551247D01*
X117511422Y-46551260D01*
X117602327Y-46733821D01*
X117725237Y-46896581D01*
X117875958Y-47033980D01*
X117875960Y-47033982D01*
X117975141Y-47095392D01*
X118049363Y-47141348D01*
X118130283Y-47172696D01*
X118185685Y-47215269D01*
X118209276Y-47281035D01*
X118193565Y-47349116D01*
X118143542Y-47397895D01*
X118117586Y-47408097D01*
X118078519Y-47418565D01*
X118078507Y-47418570D01*
X117864422Y-47518399D01*
X117864420Y-47518400D01*
X117670926Y-47653886D01*
X117670920Y-47653891D01*
X117503891Y-47820920D01*
X117503886Y-47820926D01*
X117368400Y-48014420D01*
X117368399Y-48014422D01*
X117268570Y-48228507D01*
X117268568Y-48228511D01*
X117259592Y-48262011D01*
X117223226Y-48321671D01*
X117160379Y-48352199D01*
X117091003Y-48343904D01*
X117037126Y-48299418D01*
X117028817Y-48285188D01*
X116982415Y-48192000D01*
X116941673Y-48110179D01*
X116818764Y-47947421D01*
X116818762Y-47947418D01*
X116668041Y-47810019D01*
X116668039Y-47810017D01*
X116494642Y-47702655D01*
X116494635Y-47702651D01*
X116368769Y-47653891D01*
X116304456Y-47628976D01*
X116103976Y-47591500D01*
X115900024Y-47591500D01*
X115699544Y-47628976D01*
X115699541Y-47628976D01*
X115699541Y-47628977D01*
X115509364Y-47702651D01*
X115509357Y-47702655D01*
X115335960Y-47810017D01*
X115335958Y-47810019D01*
X115185237Y-47947418D01*
X115062327Y-48110178D01*
X114971422Y-48292739D01*
X114971417Y-48292752D01*
X114915602Y-48488917D01*
X114896785Y-48691999D01*
X114896785Y-48692000D01*
X114567215Y-48692000D01*
X114548397Y-48488917D01*
X114492582Y-48292750D01*
X114477274Y-48262008D01*
X114442415Y-48192000D01*
X114401673Y-48110179D01*
X114278764Y-47947421D01*
X114278762Y-47947418D01*
X114128041Y-47810019D01*
X114128039Y-47810017D01*
X113954642Y-47702655D01*
X113954635Y-47702651D01*
X113873715Y-47671303D01*
X113818313Y-47628730D01*
X113794723Y-47562963D01*
X113810434Y-47494883D01*
X113860458Y-47446104D01*
X113886417Y-47435901D01*
X113925481Y-47425434D01*
X113925492Y-47425429D01*
X114139578Y-47325600D01*
X114333082Y-47190105D01*
X114500105Y-47023082D01*
X114635600Y-46829578D01*
X114735429Y-46615492D01*
X114735431Y-46615489D01*
X114744406Y-46581992D01*
X114780770Y-46522331D01*
X114843616Y-46491800D01*
X114912992Y-46500094D01*
X114966871Y-46544578D01*
X114975182Y-46558811D01*
X115062327Y-46733821D01*
X115185237Y-46896581D01*
X115335958Y-47033980D01*
X115335960Y-47033982D01*
X115435141Y-47095392D01*
X115509363Y-47141348D01*
X115699544Y-47215024D01*
X115900024Y-47252500D01*
X115900026Y-47252500D01*
X116103974Y-47252500D01*
X116103976Y-47252500D01*
X116304456Y-47215024D01*
X116494637Y-47141348D01*
X116668041Y-47033981D01*
X116818764Y-46896579D01*
X116941673Y-46733821D01*
X117032582Y-46551250D01*
X117088397Y-46355083D01*
X117107215Y-46152000D01*
X117098963Y-46062950D01*
X117088397Y-45948917D01*
X117065036Y-45866812D01*
X117032582Y-45752750D01*
X117019608Y-45726695D01*
X116963096Y-45613202D01*
X116941673Y-45570179D01*
X116818764Y-45407421D01*
X116818762Y-45407418D01*
X116668041Y-45270019D01*
X116668039Y-45270017D01*
X116494642Y-45162655D01*
X116494635Y-45162651D01*
X116368769Y-45113891D01*
X116304456Y-45088976D01*
X116103976Y-45051500D01*
X115900024Y-45051500D01*
X115699544Y-45088976D01*
X115699541Y-45088976D01*
X115699541Y-45088977D01*
X115509364Y-45162651D01*
X115509357Y-45162655D01*
X115335960Y-45270017D01*
X115335958Y-45270019D01*
X115185237Y-45407418D01*
X115062327Y-45570178D01*
X114975182Y-45745188D01*
X114927679Y-45796425D01*
X114860016Y-45813846D01*
X114793676Y-45791920D01*
X114749721Y-45737609D01*
X114744407Y-45722008D01*
X114735434Y-45688518D01*
X114735429Y-45688507D01*
X114635600Y-45474422D01*
X114635599Y-45474420D01*
X114500113Y-45280926D01*
X114500108Y-45280920D01*
X114333082Y-45113894D01*
X114139578Y-44978399D01*
X113925492Y-44878570D01*
X113925486Y-44878567D01*
X113712000Y-44821364D01*
X113712000Y-45716498D01*
X113604315Y-45667320D01*
X113497763Y-45652000D01*
X113426237Y-45652000D01*
X113319685Y-45667320D01*
X113212000Y-45716498D01*
X113212000Y-44821364D01*
X113211999Y-44821364D01*
X112998513Y-44878567D01*
X112998507Y-44878570D01*
X112784422Y-44978399D01*
X112784420Y-44978400D01*
X112590926Y-45113886D01*
X112590920Y-45113891D01*
X112423891Y-45280920D01*
X112423886Y-45280926D01*
X112288400Y-45474420D01*
X112288399Y-45474422D01*
X112188570Y-45688507D01*
X112188568Y-45688511D01*
X112179592Y-45722011D01*
X112143226Y-45781671D01*
X112080379Y-45812199D01*
X112011003Y-45803904D01*
X111957126Y-45759418D01*
X111948817Y-45745188D01*
X111902415Y-45652000D01*
X111861673Y-45570179D01*
X111738764Y-45407421D01*
X111738762Y-45407418D01*
X111588041Y-45270019D01*
X111588039Y-45270017D01*
X111414642Y-45162655D01*
X111414635Y-45162651D01*
X111288769Y-45113891D01*
X111224456Y-45088976D01*
X111023976Y-45051500D01*
X110820024Y-45051500D01*
X110619544Y-45088976D01*
X110619541Y-45088976D01*
X110619541Y-45088977D01*
X110429364Y-45162651D01*
X110429357Y-45162655D01*
X110255960Y-45270017D01*
X110255958Y-45270019D01*
X110105237Y-45407418D01*
X109982327Y-45570178D01*
X109891422Y-45752739D01*
X109891417Y-45752752D01*
X109835602Y-45948917D01*
X109816785Y-46151999D01*
X109816785Y-46152000D01*
X109487215Y-46152000D01*
X109478963Y-46062950D01*
X109468397Y-45948917D01*
X109445036Y-45866812D01*
X109412582Y-45752750D01*
X109399608Y-45726695D01*
X109343096Y-45613202D01*
X109321673Y-45570179D01*
X109198764Y-45407421D01*
X109198762Y-45407418D01*
X109048041Y-45270019D01*
X109048039Y-45270017D01*
X108874642Y-45162655D01*
X108874635Y-45162651D01*
X108748769Y-45113891D01*
X108684456Y-45088976D01*
X108483976Y-45051500D01*
X108280024Y-45051500D01*
X108079544Y-45088976D01*
X108079541Y-45088976D01*
X108079541Y-45088977D01*
X107889364Y-45162651D01*
X107889357Y-45162655D01*
X107715960Y-45270017D01*
X107715958Y-45270019D01*
X107565237Y-45407418D01*
X107442327Y-45570178D01*
X107351422Y-45752739D01*
X107351417Y-45752752D01*
X107295602Y-45948917D01*
X107276785Y-46151999D01*
X107276785Y-46152000D01*
X105111158Y-46152000D01*
X105038708Y-46062947D01*
X104909373Y-45942156D01*
X104828700Y-45866812D01*
X104593935Y-45701098D01*
X104338793Y-45568894D01*
X104068037Y-45472667D01*
X104068034Y-45472666D01*
X103866421Y-45430771D01*
X103786686Y-45414202D01*
X103786684Y-45414201D01*
X103786680Y-45414201D01*
X103668070Y-45406088D01*
X103571752Y-45399500D01*
X103428248Y-45399500D01*
X103337724Y-45405691D01*
X103213319Y-45414201D01*
X102931965Y-45472666D01*
X102931962Y-45472667D01*
X102661206Y-45568894D01*
X102406064Y-45701098D01*
X102171299Y-45866812D01*
X101961289Y-46062950D01*
X101779944Y-46285853D01*
X101630634Y-46531382D01*
X101516158Y-46794935D01*
X101516158Y-46794936D01*
X101438630Y-47071635D01*
X101438629Y-47071642D01*
X101418922Y-47215022D01*
X101399500Y-47356322D01*
X101399500Y-47643678D01*
X100050500Y-47643678D01*
X100050500Y-47003480D01*
X100050695Y-46996527D01*
X100059478Y-46840130D01*
X100068656Y-46676700D01*
X100070210Y-46662907D01*
X100123283Y-46350537D01*
X100126377Y-46336985D01*
X100128531Y-46329511D01*
X100214090Y-46032526D01*
X100218682Y-46019406D01*
X100281888Y-45866812D01*
X100339929Y-45726686D01*
X100345951Y-45714180D01*
X100499227Y-45436850D01*
X100506605Y-45425107D01*
X100689972Y-45166676D01*
X100698619Y-45155834D01*
X100909750Y-44919579D01*
X100919581Y-44909749D01*
X100954470Y-44878570D01*
X101155834Y-44698619D01*
X101166676Y-44689972D01*
X101425107Y-44506605D01*
X101436850Y-44499227D01*
X101714180Y-44345951D01*
X101726686Y-44339929D01*
X102019406Y-44218682D01*
X102032526Y-44214090D01*
X102336990Y-44126375D01*
X102350537Y-44123283D01*
X102662907Y-44070210D01*
X102676700Y-44068656D01*
X102996528Y-44050695D01*
X103003481Y-44050500D01*
X103016408Y-44050500D01*
X125153592Y-44050500D01*
X125165125Y-44050500D01*
X125174853Y-44050881D01*
G37*
G04 #@! TD.AperFunction*
M02*
