G04 #@! TF.GenerationSoftware,KiCad,Pcbnew,7.0.10*
G04 #@! TF.CreationDate,2024-02-05T22:52:07+01:00*
G04 #@! TF.ProjectId,PowerPCB,506f7765-7250-4434-922e-6b696361645f,rev?*
G04 #@! TF.SameCoordinates,Original*
G04 #@! TF.FileFunction,Legend,Bot*
G04 #@! TF.FilePolarity,Positive*
%FSLAX46Y46*%
G04 Gerber Fmt 4.6, Leading zero omitted, Abs format (unit mm)*
G04 Created by KiCad (PCBNEW 7.0.10) date 2024-02-05 22:52:07*
%MOMM*%
%LPD*%
G01*
G04 APERTURE LIST*
G04 Aperture macros list*
%AMRoundRect*
0 Rectangle with rounded corners*
0 $1 Rounding radius*
0 $2 $3 $4 $5 $6 $7 $8 $9 X,Y pos of 4 corners*
0 Add a 4 corners polygon primitive as box body*
4,1,4,$2,$3,$4,$5,$6,$7,$8,$9,$2,$3,0*
0 Add four circle primitives for the rounded corners*
1,1,$1+$1,$2,$3*
1,1,$1+$1,$4,$5*
1,1,$1+$1,$6,$7*
1,1,$1+$1,$8,$9*
0 Add four rect primitives between the rounded corners*
20,1,$1+$1,$2,$3,$4,$5,0*
20,1,$1+$1,$4,$5,$6,$7,0*
20,1,$1+$1,$6,$7,$8,$9,0*
20,1,$1+$1,$8,$9,$2,$3,0*%
G04 Aperture macros list end*
%ADD10C,0.150000*%
%ADD11C,0.120000*%
%ADD12R,1.500000X1.500000*%
%ADD13C,3.200000*%
%ADD14RoundRect,0.250000X0.600000X0.750000X-0.600000X0.750000X-0.600000X-0.750000X0.600000X-0.750000X0*%
%ADD15O,1.700000X2.000000*%
%ADD16C,3.000000*%
%ADD17RoundRect,0.250001X0.759999X-0.499999X0.759999X0.499999X-0.759999X0.499999X-0.759999X-0.499999X0*%
%ADD18O,2.020000X1.500000*%
%ADD19R,1.700000X1.700000*%
%ADD20O,1.700000X1.700000*%
G04 APERTURE END LIST*
D10*
X105550819Y-45056666D02*
X106265104Y-45056666D01*
X106265104Y-45056666D02*
X106407961Y-45009047D01*
X106407961Y-45009047D02*
X106503200Y-44913809D01*
X106503200Y-44913809D02*
X106550819Y-44770952D01*
X106550819Y-44770952D02*
X106550819Y-44675714D01*
X106550819Y-46056666D02*
X106550819Y-45485238D01*
X106550819Y-45770952D02*
X105550819Y-45770952D01*
X105550819Y-45770952D02*
X105693676Y-45675714D01*
X105693676Y-45675714D02*
X105788914Y-45580476D01*
X105788914Y-45580476D02*
X105836533Y-45485238D01*
D11*
X122412000Y-44822000D02*
X122412000Y-50022000D01*
X107052000Y-44822000D02*
X122412000Y-44822000D01*
X107052000Y-44822000D02*
X107052000Y-47422000D01*
X109652000Y-47422000D02*
X109652000Y-50022000D01*
X107052000Y-47422000D02*
X109652000Y-47422000D01*
X107052000Y-48692000D02*
X107052000Y-50022000D01*
X109652000Y-50022000D02*
X122412000Y-50022000D01*
X107052000Y-50022000D02*
X108382000Y-50022000D01*
%LPC*%
D12*
X113462000Y-61900000D03*
D13*
X103500000Y-47500000D03*
D14*
X121570000Y-60393000D03*
D15*
X119070000Y-60393000D03*
D16*
X105334000Y-57074000D03*
D17*
X109654000Y-60074000D03*
D18*
X109654000Y-57074000D03*
X109654000Y-54074000D03*
D19*
X108382000Y-48692000D03*
D20*
X108382000Y-46152000D03*
X110922000Y-48692000D03*
X110922000Y-46152000D03*
X113462000Y-48692000D03*
X113462000Y-46152000D03*
X116002000Y-48692000D03*
X116002000Y-46152000D03*
X118542000Y-48692000D03*
X118542000Y-46152000D03*
X121082000Y-48692000D03*
X121082000Y-46152000D03*
%LPD*%
M02*
