G04 #@! TF.GenerationSoftware,KiCad,Pcbnew,(7.0.0)*
G04 #@! TF.CreationDate,2023-03-25T16:30:21+01:00*
G04 #@! TF.ProjectId,PowerPCB,506f7765-7250-4434-922e-6b696361645f,rev?*
G04 #@! TF.SameCoordinates,Original*
G04 #@! TF.FileFunction,Legend,Bot*
G04 #@! TF.FilePolarity,Positive*
%FSLAX46Y46*%
G04 Gerber Fmt 4.6, Leading zero omitted, Abs format (unit mm)*
G04 Created by KiCad (PCBNEW (7.0.0)) date 2023-03-25 16:30:21*
%MOMM*%
%LPD*%
G01*
G04 APERTURE LIST*
G04 Aperture macros list*
%AMRoundRect*
0 Rectangle with rounded corners*
0 $1 Rounding radius*
0 $2 $3 $4 $5 $6 $7 $8 $9 X,Y pos of 4 corners*
0 Add a 4 corners polygon primitive as box body*
4,1,4,$2,$3,$4,$5,$6,$7,$8,$9,$2,$3,0*
0 Add four circle primitives for the rounded corners*
1,1,$1+$1,$2,$3*
1,1,$1+$1,$4,$5*
1,1,$1+$1,$6,$7*
1,1,$1+$1,$8,$9*
0 Add four rect primitives between the rounded corners*
20,1,$1+$1,$2,$3,$4,$5,0*
20,1,$1+$1,$4,$5,$6,$7,0*
20,1,$1+$1,$6,$7,$8,$9,0*
20,1,$1+$1,$8,$9,$2,$3,0*%
G04 Aperture macros list end*
%ADD10C,0.150000*%
%ADD11C,0.120000*%
%ADD12C,2.700000*%
%ADD13RoundRect,0.250000X-0.750000X0.600000X-0.750000X-0.600000X0.750000X-0.600000X0.750000X0.600000X0*%
%ADD14O,2.000000X1.700000*%
%ADD15C,3.000000*%
%ADD16RoundRect,0.250001X0.759999X-0.499999X0.759999X0.499999X-0.759999X0.499999X-0.759999X-0.499999X0*%
%ADD17O,2.020000X1.500000*%
%ADD18R,1.700000X1.700000*%
%ADD19O,1.700000X1.700000*%
G04 APERTURE END LIST*
D10*
X104967380Y-47166666D02*
X105681666Y-47166666D01*
X105681666Y-47166666D02*
X105824523Y-47119047D01*
X105824523Y-47119047D02*
X105919761Y-47023809D01*
X105919761Y-47023809D02*
X105967380Y-46880952D01*
X105967380Y-46880952D02*
X105967380Y-46785714D01*
X105967380Y-48166666D02*
X105967380Y-47595238D01*
X105967380Y-47880952D02*
X104967380Y-47880952D01*
X104967380Y-47880952D02*
X105110238Y-47785714D01*
X105110238Y-47785714D02*
X105205476Y-47690476D01*
X105205476Y-47690476D02*
X105253095Y-47595238D01*
D11*
X119860000Y-44900000D02*
X119860000Y-50100000D01*
X107040000Y-44900000D02*
X119860000Y-44900000D01*
X107040000Y-44900000D02*
X107040000Y-47500000D01*
X109640000Y-47500000D02*
X109640000Y-50100000D01*
X107040000Y-47500000D02*
X109640000Y-47500000D01*
X107040000Y-48770000D02*
X107040000Y-50100000D01*
X109640000Y-50100000D02*
X119860000Y-50100000D01*
X107040000Y-50100000D02*
X108370000Y-50100000D01*
%LPC*%
D12*
X103500000Y-47500000D03*
D13*
X128211000Y-57094000D03*
D14*
X128210999Y-59593999D03*
D15*
X105334000Y-56566000D03*
D16*
X109654000Y-59566000D03*
D17*
X109653999Y-56565999D03*
X109653999Y-53565999D03*
D13*
X128194000Y-47422000D03*
D14*
X128193999Y-49921999D03*
D18*
X108369999Y-48769999D03*
D19*
X108369999Y-46229999D03*
X110909999Y-48769999D03*
X110909999Y-46229999D03*
X113449999Y-48769999D03*
X113449999Y-46229999D03*
X115989999Y-48769999D03*
X115989999Y-46229999D03*
X118529999Y-48769999D03*
X118529999Y-46229999D03*
M02*
