M48
; DRILL file {KiCad (7.0.0)} date Sat Mar 25 16:31:28 2023
; FORMAT={-:-/ absolute / metric / decimal}
; #@! TF.CreationDate,2023-03-25T16:31:28+01:00
; #@! TF.GenerationSoftware,Kicad,Pcbnew,(7.0.0)
; #@! TF.FileFunction,Plated,1,2,PTH
FMAT,2
METRIC
; #@! TA.AperFunction,Plated,PTH,ViaDrill
T1C0.400
; #@! TA.AperFunction,Plated,PTH,ComponentDrill
T2C1.000
; #@! TA.AperFunction,Plated,PTH,ComponentDrill
T3C1.020
%
G90
G05
T1
X113.716Y-52.756
X114.732Y-58.344
X114.986Y-55.55
X115.24Y-60.63
X117.272Y-58.5
X119.793Y-54.355
X120.047Y-55.804
T2
X108.37Y-46.23
X108.37Y-48.77
X110.91Y-46.23
X110.91Y-48.77
X113.45Y-46.23
X113.45Y-48.77
X115.99Y-46.23
X115.99Y-48.77
X118.53Y-46.23
X118.53Y-48.77
X128.194Y-47.422
X128.194Y-49.922
X128.211Y-57.094
X128.211Y-59.594
T3
X109.654Y-53.566
X109.654Y-56.566
X109.654Y-59.566
T0
M30
