%TF.GenerationSoftware,KiCad,Pcbnew,(7.0.0)*%
%TF.CreationDate,2023-03-25T16:31:21+01:00*%
%TF.ProjectId,PowerPCB,506f7765-7250-4434-922e-6b696361645f,rev?*%
%TF.SameCoordinates,Original*%
%TF.FileFunction,Drillmap*%
%TF.FilePolarity,Positive*%
%FSLAX45Y45*%
G04 Gerber Fmt 4.5, Leading zero omitted, Abs format (unit mm)*
G04 Created by KiCad (PCBNEW (7.0.0)) date 2023-03-25 16:31:21*
%MOMM*%
%LPD*%
G01*
G04 APERTURE LIST*
%ADD10C,0.100000*%
%ADD11C,0.200000*%
%ADD12C,0.040000*%
%ADD13C,0.102000*%
G04 APERTURE END LIST*
D10*
X10000000Y-6050000D02*
G75*
G03*
X10300000Y-6350000I300000J0D01*
G01*
X13200000Y-4550000D02*
G75*
G03*
X13050000Y-4400000I-150000J0D01*
G01*
X10000000Y-4700000D02*
X10000000Y-6050000D01*
X13050000Y-6350000D02*
G75*
G03*
X13200000Y-6200000I0J150000D01*
G01*
X10300000Y-4400000D02*
G75*
G03*
X10000000Y-4700000I0J-300000D01*
G01*
X10300000Y-6350000D02*
X13050000Y-6350000D01*
X13200000Y-4550000D02*
X13200000Y-6200000D01*
X13050000Y-4400000D02*
X10300000Y-4400000D01*
D11*
D12*
X11351600Y-5255600D02*
X11391600Y-5295600D01*
X11391600Y-5255600D02*
X11351600Y-5295600D01*
X11453200Y-5814400D02*
X11493200Y-5854400D01*
X11493200Y-5814400D02*
X11453200Y-5854400D01*
X11478600Y-5535000D02*
X11518600Y-5575000D01*
X11518600Y-5535000D02*
X11478600Y-5575000D01*
X11504000Y-6043000D02*
X11544000Y-6083000D01*
X11544000Y-6043000D02*
X11504000Y-6083000D01*
X11707200Y-5830000D02*
X11747200Y-5870000D01*
X11747200Y-5830000D02*
X11707200Y-5870000D01*
X11959325Y-5415525D02*
X11999325Y-5455525D01*
X11999325Y-5415525D02*
X11959325Y-5455525D01*
X11984725Y-5560400D02*
X12024725Y-5600400D01*
X12024725Y-5560400D02*
X11984725Y-5600400D01*
D10*
X10887000Y-4623000D02*
G75*
G03*
X10887000Y-4623000I-50000J0D01*
G01*
X10887000Y-4877000D02*
G75*
G03*
X10887000Y-4877000I-50000J0D01*
G01*
X11141000Y-4623000D02*
G75*
G03*
X11141000Y-4623000I-50000J0D01*
G01*
X11141000Y-4877000D02*
G75*
G03*
X11141000Y-4877000I-50000J0D01*
G01*
X11395000Y-4623000D02*
G75*
G03*
X11395000Y-4623000I-50000J0D01*
G01*
X11395000Y-4877000D02*
G75*
G03*
X11395000Y-4877000I-50000J0D01*
G01*
X11649000Y-4623000D02*
G75*
G03*
X11649000Y-4623000I-50000J0D01*
G01*
X11649000Y-4877000D02*
G75*
G03*
X11649000Y-4877000I-50000J0D01*
G01*
X11903000Y-4623000D02*
G75*
G03*
X11903000Y-4623000I-50000J0D01*
G01*
X11903000Y-4877000D02*
G75*
G03*
X11903000Y-4877000I-50000J0D01*
G01*
X12869400Y-4742200D02*
G75*
G03*
X12869400Y-4742200I-50000J0D01*
G01*
X12869400Y-4992200D02*
G75*
G03*
X12869400Y-4992200I-50000J0D01*
G01*
X12871100Y-5709400D02*
G75*
G03*
X12871100Y-5709400I-50000J0D01*
G01*
X12871100Y-5959400D02*
G75*
G03*
X12871100Y-5959400I-50000J0D01*
G01*
D13*
X10965400Y-5305600D02*
X10965400Y-5407600D01*
X10914400Y-5356600D02*
X11016400Y-5356600D01*
X10965400Y-5605600D02*
X10965400Y-5707600D01*
X10914400Y-5656600D02*
X11016400Y-5656600D01*
X10965400Y-5905600D02*
X10965400Y-6007600D01*
X10914400Y-5956600D02*
X11016400Y-5956600D01*
D11*
X10242619Y-6648476D02*
X10242619Y-6448476D01*
X10242619Y-6448476D02*
X10290238Y-6448476D01*
X10290238Y-6448476D02*
X10318810Y-6458000D01*
X10318810Y-6458000D02*
X10337857Y-6477048D01*
X10337857Y-6477048D02*
X10347381Y-6496095D01*
X10347381Y-6496095D02*
X10356905Y-6534190D01*
X10356905Y-6534190D02*
X10356905Y-6562762D01*
X10356905Y-6562762D02*
X10347381Y-6600857D01*
X10347381Y-6600857D02*
X10337857Y-6619905D01*
X10337857Y-6619905D02*
X10318810Y-6638952D01*
X10318810Y-6638952D02*
X10290238Y-6648476D01*
X10290238Y-6648476D02*
X10242619Y-6648476D01*
X10442619Y-6648476D02*
X10442619Y-6515143D01*
X10442619Y-6553238D02*
X10452143Y-6534190D01*
X10452143Y-6534190D02*
X10461667Y-6524667D01*
X10461667Y-6524667D02*
X10480714Y-6515143D01*
X10480714Y-6515143D02*
X10499762Y-6515143D01*
X10566429Y-6648476D02*
X10566429Y-6515143D01*
X10566429Y-6448476D02*
X10556905Y-6458000D01*
X10556905Y-6458000D02*
X10566429Y-6467524D01*
X10566429Y-6467524D02*
X10575952Y-6458000D01*
X10575952Y-6458000D02*
X10566429Y-6448476D01*
X10566429Y-6448476D02*
X10566429Y-6467524D01*
X10690238Y-6648476D02*
X10671190Y-6638952D01*
X10671190Y-6638952D02*
X10661667Y-6619905D01*
X10661667Y-6619905D02*
X10661667Y-6448476D01*
X10795000Y-6648476D02*
X10775952Y-6638952D01*
X10775952Y-6638952D02*
X10766429Y-6619905D01*
X10766429Y-6619905D02*
X10766429Y-6448476D01*
X10991190Y-6648476D02*
X10991190Y-6448476D01*
X10991190Y-6448476D02*
X11057857Y-6591333D01*
X11057857Y-6591333D02*
X11124524Y-6448476D01*
X11124524Y-6448476D02*
X11124524Y-6648476D01*
X11305476Y-6648476D02*
X11305476Y-6543714D01*
X11305476Y-6543714D02*
X11295952Y-6524667D01*
X11295952Y-6524667D02*
X11276905Y-6515143D01*
X11276905Y-6515143D02*
X11238809Y-6515143D01*
X11238809Y-6515143D02*
X11219762Y-6524667D01*
X11305476Y-6638952D02*
X11286428Y-6648476D01*
X11286428Y-6648476D02*
X11238809Y-6648476D01*
X11238809Y-6648476D02*
X11219762Y-6638952D01*
X11219762Y-6638952D02*
X11210238Y-6619905D01*
X11210238Y-6619905D02*
X11210238Y-6600857D01*
X11210238Y-6600857D02*
X11219762Y-6581809D01*
X11219762Y-6581809D02*
X11238809Y-6572286D01*
X11238809Y-6572286D02*
X11286428Y-6572286D01*
X11286428Y-6572286D02*
X11305476Y-6562762D01*
X11400714Y-6515143D02*
X11400714Y-6715143D01*
X11400714Y-6524667D02*
X11419762Y-6515143D01*
X11419762Y-6515143D02*
X11457857Y-6515143D01*
X11457857Y-6515143D02*
X11476905Y-6524667D01*
X11476905Y-6524667D02*
X11486428Y-6534190D01*
X11486428Y-6534190D02*
X11495952Y-6553238D01*
X11495952Y-6553238D02*
X11495952Y-6610381D01*
X11495952Y-6610381D02*
X11486428Y-6629428D01*
X11486428Y-6629428D02*
X11476905Y-6638952D01*
X11476905Y-6638952D02*
X11457857Y-6648476D01*
X11457857Y-6648476D02*
X11419762Y-6648476D01*
X11419762Y-6648476D02*
X11400714Y-6638952D01*
X11581667Y-6629428D02*
X11591190Y-6638952D01*
X11591190Y-6638952D02*
X11581667Y-6648476D01*
X11581667Y-6648476D02*
X11572143Y-6638952D01*
X11572143Y-6638952D02*
X11581667Y-6629428D01*
X11581667Y-6629428D02*
X11581667Y-6648476D01*
X11581667Y-6524667D02*
X11591190Y-6534190D01*
X11591190Y-6534190D02*
X11581667Y-6543714D01*
X11581667Y-6543714D02*
X11572143Y-6534190D01*
X11572143Y-6534190D02*
X11581667Y-6524667D01*
X11581667Y-6524667D02*
X11581667Y-6543714D01*
D12*
X9955000Y-6975000D02*
X9995000Y-7015000D01*
X9995000Y-6975000D02*
X9955000Y-7015000D01*
D11*
X10280714Y-6868476D02*
X10299762Y-6868476D01*
X10299762Y-6868476D02*
X10318810Y-6878000D01*
X10318810Y-6878000D02*
X10328333Y-6887524D01*
X10328333Y-6887524D02*
X10337857Y-6906571D01*
X10337857Y-6906571D02*
X10347381Y-6944667D01*
X10347381Y-6944667D02*
X10347381Y-6992286D01*
X10347381Y-6992286D02*
X10337857Y-7030381D01*
X10337857Y-7030381D02*
X10328333Y-7049428D01*
X10328333Y-7049428D02*
X10318810Y-7058952D01*
X10318810Y-7058952D02*
X10299762Y-7068476D01*
X10299762Y-7068476D02*
X10280714Y-7068476D01*
X10280714Y-7068476D02*
X10261667Y-7058952D01*
X10261667Y-7058952D02*
X10252143Y-7049428D01*
X10252143Y-7049428D02*
X10242619Y-7030381D01*
X10242619Y-7030381D02*
X10233095Y-6992286D01*
X10233095Y-6992286D02*
X10233095Y-6944667D01*
X10233095Y-6944667D02*
X10242619Y-6906571D01*
X10242619Y-6906571D02*
X10252143Y-6887524D01*
X10252143Y-6887524D02*
X10261667Y-6878000D01*
X10261667Y-6878000D02*
X10280714Y-6868476D01*
X10433095Y-7049428D02*
X10442619Y-7058952D01*
X10442619Y-7058952D02*
X10433095Y-7068476D01*
X10433095Y-7068476D02*
X10423571Y-7058952D01*
X10423571Y-7058952D02*
X10433095Y-7049428D01*
X10433095Y-7049428D02*
X10433095Y-7068476D01*
X10614048Y-6935143D02*
X10614048Y-7068476D01*
X10566429Y-6858952D02*
X10518810Y-7001809D01*
X10518810Y-7001809D02*
X10642619Y-7001809D01*
X10756905Y-6868476D02*
X10775952Y-6868476D01*
X10775952Y-6868476D02*
X10795000Y-6878000D01*
X10795000Y-6878000D02*
X10804524Y-6887524D01*
X10804524Y-6887524D02*
X10814048Y-6906571D01*
X10814048Y-6906571D02*
X10823571Y-6944667D01*
X10823571Y-6944667D02*
X10823571Y-6992286D01*
X10823571Y-6992286D02*
X10814048Y-7030381D01*
X10814048Y-7030381D02*
X10804524Y-7049428D01*
X10804524Y-7049428D02*
X10795000Y-7058952D01*
X10795000Y-7058952D02*
X10775952Y-7068476D01*
X10775952Y-7068476D02*
X10756905Y-7068476D01*
X10756905Y-7068476D02*
X10737857Y-7058952D01*
X10737857Y-7058952D02*
X10728333Y-7049428D01*
X10728333Y-7049428D02*
X10718810Y-7030381D01*
X10718810Y-7030381D02*
X10709286Y-6992286D01*
X10709286Y-6992286D02*
X10709286Y-6944667D01*
X10709286Y-6944667D02*
X10718810Y-6906571D01*
X10718810Y-6906571D02*
X10728333Y-6887524D01*
X10728333Y-6887524D02*
X10737857Y-6878000D01*
X10737857Y-6878000D02*
X10756905Y-6868476D01*
X10947381Y-6868476D02*
X10966429Y-6868476D01*
X10966429Y-6868476D02*
X10985476Y-6878000D01*
X10985476Y-6878000D02*
X10995000Y-6887524D01*
X10995000Y-6887524D02*
X11004524Y-6906571D01*
X11004524Y-6906571D02*
X11014048Y-6944667D01*
X11014048Y-6944667D02*
X11014048Y-6992286D01*
X11014048Y-6992286D02*
X11004524Y-7030381D01*
X11004524Y-7030381D02*
X10995000Y-7049428D01*
X10995000Y-7049428D02*
X10985476Y-7058952D01*
X10985476Y-7058952D02*
X10966429Y-7068476D01*
X10966429Y-7068476D02*
X10947381Y-7068476D01*
X10947381Y-7068476D02*
X10928333Y-7058952D01*
X10928333Y-7058952D02*
X10918810Y-7049428D01*
X10918810Y-7049428D02*
X10909286Y-7030381D01*
X10909286Y-7030381D02*
X10899762Y-6992286D01*
X10899762Y-6992286D02*
X10899762Y-6944667D01*
X10899762Y-6944667D02*
X10909286Y-6906571D01*
X10909286Y-6906571D02*
X10918810Y-6887524D01*
X10918810Y-6887524D02*
X10928333Y-6878000D01*
X10928333Y-6878000D02*
X10947381Y-6868476D01*
X11099762Y-7068476D02*
X11099762Y-6935143D01*
X11099762Y-6954190D02*
X11109286Y-6944667D01*
X11109286Y-6944667D02*
X11128333Y-6935143D01*
X11128333Y-6935143D02*
X11156905Y-6935143D01*
X11156905Y-6935143D02*
X11175952Y-6944667D01*
X11175952Y-6944667D02*
X11185476Y-6963714D01*
X11185476Y-6963714D02*
X11185476Y-7068476D01*
X11185476Y-6963714D02*
X11195000Y-6944667D01*
X11195000Y-6944667D02*
X11214048Y-6935143D01*
X11214048Y-6935143D02*
X11242619Y-6935143D01*
X11242619Y-6935143D02*
X11261667Y-6944667D01*
X11261667Y-6944667D02*
X11271190Y-6963714D01*
X11271190Y-6963714D02*
X11271190Y-7068476D01*
X11366429Y-7068476D02*
X11366429Y-6935143D01*
X11366429Y-6954190D02*
X11375952Y-6944667D01*
X11375952Y-6944667D02*
X11395000Y-6935143D01*
X11395000Y-6935143D02*
X11423571Y-6935143D01*
X11423571Y-6935143D02*
X11442619Y-6944667D01*
X11442619Y-6944667D02*
X11452143Y-6963714D01*
X11452143Y-6963714D02*
X11452143Y-7068476D01*
X11452143Y-6963714D02*
X11461667Y-6944667D01*
X11461667Y-6944667D02*
X11480714Y-6935143D01*
X11480714Y-6935143D02*
X11509286Y-6935143D01*
X11509286Y-6935143D02*
X11528333Y-6944667D01*
X11528333Y-6944667D02*
X11537857Y-6963714D01*
X11537857Y-6963714D02*
X11537857Y-7068476D01*
X11895952Y-6858952D02*
X11724524Y-7116095D01*
X12120714Y-6868476D02*
X12139762Y-6868476D01*
X12139762Y-6868476D02*
X12158810Y-6878000D01*
X12158810Y-6878000D02*
X12168333Y-6887524D01*
X12168333Y-6887524D02*
X12177857Y-6906571D01*
X12177857Y-6906571D02*
X12187381Y-6944667D01*
X12187381Y-6944667D02*
X12187381Y-6992286D01*
X12187381Y-6992286D02*
X12177857Y-7030381D01*
X12177857Y-7030381D02*
X12168333Y-7049428D01*
X12168333Y-7049428D02*
X12158810Y-7058952D01*
X12158810Y-7058952D02*
X12139762Y-7068476D01*
X12139762Y-7068476D02*
X12120714Y-7068476D01*
X12120714Y-7068476D02*
X12101667Y-7058952D01*
X12101667Y-7058952D02*
X12092143Y-7049428D01*
X12092143Y-7049428D02*
X12082619Y-7030381D01*
X12082619Y-7030381D02*
X12073095Y-6992286D01*
X12073095Y-6992286D02*
X12073095Y-6944667D01*
X12073095Y-6944667D02*
X12082619Y-6906571D01*
X12082619Y-6906571D02*
X12092143Y-6887524D01*
X12092143Y-6887524D02*
X12101667Y-6878000D01*
X12101667Y-6878000D02*
X12120714Y-6868476D01*
X12273095Y-7049428D02*
X12282619Y-7058952D01*
X12282619Y-7058952D02*
X12273095Y-7068476D01*
X12273095Y-7068476D02*
X12263571Y-7058952D01*
X12263571Y-7058952D02*
X12273095Y-7049428D01*
X12273095Y-7049428D02*
X12273095Y-7068476D01*
X12406429Y-6868476D02*
X12425476Y-6868476D01*
X12425476Y-6868476D02*
X12444524Y-6878000D01*
X12444524Y-6878000D02*
X12454048Y-6887524D01*
X12454048Y-6887524D02*
X12463571Y-6906571D01*
X12463571Y-6906571D02*
X12473095Y-6944667D01*
X12473095Y-6944667D02*
X12473095Y-6992286D01*
X12473095Y-6992286D02*
X12463571Y-7030381D01*
X12463571Y-7030381D02*
X12454048Y-7049428D01*
X12454048Y-7049428D02*
X12444524Y-7058952D01*
X12444524Y-7058952D02*
X12425476Y-7068476D01*
X12425476Y-7068476D02*
X12406429Y-7068476D01*
X12406429Y-7068476D02*
X12387381Y-7058952D01*
X12387381Y-7058952D02*
X12377857Y-7049428D01*
X12377857Y-7049428D02*
X12368333Y-7030381D01*
X12368333Y-7030381D02*
X12358810Y-6992286D01*
X12358810Y-6992286D02*
X12358810Y-6944667D01*
X12358810Y-6944667D02*
X12368333Y-6906571D01*
X12368333Y-6906571D02*
X12377857Y-6887524D01*
X12377857Y-6887524D02*
X12387381Y-6878000D01*
X12387381Y-6878000D02*
X12406429Y-6868476D01*
X12663571Y-7068476D02*
X12549286Y-7068476D01*
X12606429Y-7068476D02*
X12606429Y-6868476D01*
X12606429Y-6868476D02*
X12587381Y-6897048D01*
X12587381Y-6897048D02*
X12568333Y-6916095D01*
X12568333Y-6916095D02*
X12549286Y-6925619D01*
X12844524Y-6868476D02*
X12749286Y-6868476D01*
X12749286Y-6868476D02*
X12739762Y-6963714D01*
X12739762Y-6963714D02*
X12749286Y-6954190D01*
X12749286Y-6954190D02*
X12768333Y-6944667D01*
X12768333Y-6944667D02*
X12815952Y-6944667D01*
X12815952Y-6944667D02*
X12835000Y-6954190D01*
X12835000Y-6954190D02*
X12844524Y-6963714D01*
X12844524Y-6963714D02*
X12854048Y-6982762D01*
X12854048Y-6982762D02*
X12854048Y-7030381D01*
X12854048Y-7030381D02*
X12844524Y-7049428D01*
X12844524Y-7049428D02*
X12835000Y-7058952D01*
X12835000Y-7058952D02*
X12815952Y-7068476D01*
X12815952Y-7068476D02*
X12768333Y-7068476D01*
X12768333Y-7068476D02*
X12749286Y-7058952D01*
X12749286Y-7058952D02*
X12739762Y-7049428D01*
X12920714Y-6868476D02*
X13054048Y-6868476D01*
X13054048Y-6868476D02*
X12968333Y-7068476D01*
X13120714Y-6868476D02*
X13120714Y-6906571D01*
X13196905Y-6868476D02*
X13196905Y-6906571D01*
X13459762Y-7144667D02*
X13450238Y-7135143D01*
X13450238Y-7135143D02*
X13431191Y-7106571D01*
X13431191Y-7106571D02*
X13421667Y-7087524D01*
X13421667Y-7087524D02*
X13412143Y-7058952D01*
X13412143Y-7058952D02*
X13402619Y-7011333D01*
X13402619Y-7011333D02*
X13402619Y-6973238D01*
X13402619Y-6973238D02*
X13412143Y-6925619D01*
X13412143Y-6925619D02*
X13421667Y-6897048D01*
X13421667Y-6897048D02*
X13431191Y-6878000D01*
X13431191Y-6878000D02*
X13450238Y-6849428D01*
X13450238Y-6849428D02*
X13459762Y-6839905D01*
X13516905Y-6868476D02*
X13650238Y-6868476D01*
X13650238Y-6868476D02*
X13564524Y-7068476D01*
X13846429Y-7068476D02*
X13846429Y-6868476D01*
X13932143Y-7068476D02*
X13932143Y-6963714D01*
X13932143Y-6963714D02*
X13922619Y-6944667D01*
X13922619Y-6944667D02*
X13903572Y-6935143D01*
X13903572Y-6935143D02*
X13875000Y-6935143D01*
X13875000Y-6935143D02*
X13855952Y-6944667D01*
X13855952Y-6944667D02*
X13846429Y-6954190D01*
X14055952Y-7068476D02*
X14036905Y-7058952D01*
X14036905Y-7058952D02*
X14027381Y-7049428D01*
X14027381Y-7049428D02*
X14017857Y-7030381D01*
X14017857Y-7030381D02*
X14017857Y-6973238D01*
X14017857Y-6973238D02*
X14027381Y-6954190D01*
X14027381Y-6954190D02*
X14036905Y-6944667D01*
X14036905Y-6944667D02*
X14055952Y-6935143D01*
X14055952Y-6935143D02*
X14084524Y-6935143D01*
X14084524Y-6935143D02*
X14103572Y-6944667D01*
X14103572Y-6944667D02*
X14113095Y-6954190D01*
X14113095Y-6954190D02*
X14122619Y-6973238D01*
X14122619Y-6973238D02*
X14122619Y-7030381D01*
X14122619Y-7030381D02*
X14113095Y-7049428D01*
X14113095Y-7049428D02*
X14103572Y-7058952D01*
X14103572Y-7058952D02*
X14084524Y-7068476D01*
X14084524Y-7068476D02*
X14055952Y-7068476D01*
X14236905Y-7068476D02*
X14217857Y-7058952D01*
X14217857Y-7058952D02*
X14208333Y-7039905D01*
X14208333Y-7039905D02*
X14208333Y-6868476D01*
X14389286Y-7058952D02*
X14370238Y-7068476D01*
X14370238Y-7068476D02*
X14332143Y-7068476D01*
X14332143Y-7068476D02*
X14313095Y-7058952D01*
X14313095Y-7058952D02*
X14303572Y-7039905D01*
X14303572Y-7039905D02*
X14303572Y-6963714D01*
X14303572Y-6963714D02*
X14313095Y-6944667D01*
X14313095Y-6944667D02*
X14332143Y-6935143D01*
X14332143Y-6935143D02*
X14370238Y-6935143D01*
X14370238Y-6935143D02*
X14389286Y-6944667D01*
X14389286Y-6944667D02*
X14398810Y-6963714D01*
X14398810Y-6963714D02*
X14398810Y-6982762D01*
X14398810Y-6982762D02*
X14303572Y-7001809D01*
X14475000Y-7058952D02*
X14494048Y-7068476D01*
X14494048Y-7068476D02*
X14532143Y-7068476D01*
X14532143Y-7068476D02*
X14551191Y-7058952D01*
X14551191Y-7058952D02*
X14560714Y-7039905D01*
X14560714Y-7039905D02*
X14560714Y-7030381D01*
X14560714Y-7030381D02*
X14551191Y-7011333D01*
X14551191Y-7011333D02*
X14532143Y-7001809D01*
X14532143Y-7001809D02*
X14503572Y-7001809D01*
X14503572Y-7001809D02*
X14484524Y-6992286D01*
X14484524Y-6992286D02*
X14475000Y-6973238D01*
X14475000Y-6973238D02*
X14475000Y-6963714D01*
X14475000Y-6963714D02*
X14484524Y-6944667D01*
X14484524Y-6944667D02*
X14503572Y-6935143D01*
X14503572Y-6935143D02*
X14532143Y-6935143D01*
X14532143Y-6935143D02*
X14551191Y-6944667D01*
X14627381Y-7144667D02*
X14636905Y-7135143D01*
X14636905Y-7135143D02*
X14655953Y-7106571D01*
X14655953Y-7106571D02*
X14665476Y-7087524D01*
X14665476Y-7087524D02*
X14675000Y-7058952D01*
X14675000Y-7058952D02*
X14684524Y-7011333D01*
X14684524Y-7011333D02*
X14684524Y-6973238D01*
X14684524Y-6973238D02*
X14675000Y-6925619D01*
X14675000Y-6925619D02*
X14665476Y-6897048D01*
X14665476Y-6897048D02*
X14655953Y-6878000D01*
X14655953Y-6878000D02*
X14636905Y-6849428D01*
X14636905Y-6849428D02*
X14627381Y-6839905D01*
D10*
X9995000Y-7259000D02*
G75*
G03*
X9995000Y-7259000I-50000J0D01*
G01*
D11*
X10347381Y-7332476D02*
X10233095Y-7332476D01*
X10290238Y-7332476D02*
X10290238Y-7132476D01*
X10290238Y-7132476D02*
X10271190Y-7161048D01*
X10271190Y-7161048D02*
X10252143Y-7180095D01*
X10252143Y-7180095D02*
X10233095Y-7189619D01*
X10433095Y-7313428D02*
X10442619Y-7322952D01*
X10442619Y-7322952D02*
X10433095Y-7332476D01*
X10433095Y-7332476D02*
X10423571Y-7322952D01*
X10423571Y-7322952D02*
X10433095Y-7313428D01*
X10433095Y-7313428D02*
X10433095Y-7332476D01*
X10566429Y-7132476D02*
X10585476Y-7132476D01*
X10585476Y-7132476D02*
X10604524Y-7142000D01*
X10604524Y-7142000D02*
X10614048Y-7151524D01*
X10614048Y-7151524D02*
X10623571Y-7170571D01*
X10623571Y-7170571D02*
X10633095Y-7208667D01*
X10633095Y-7208667D02*
X10633095Y-7256286D01*
X10633095Y-7256286D02*
X10623571Y-7294381D01*
X10623571Y-7294381D02*
X10614048Y-7313428D01*
X10614048Y-7313428D02*
X10604524Y-7322952D01*
X10604524Y-7322952D02*
X10585476Y-7332476D01*
X10585476Y-7332476D02*
X10566429Y-7332476D01*
X10566429Y-7332476D02*
X10547381Y-7322952D01*
X10547381Y-7322952D02*
X10537857Y-7313428D01*
X10537857Y-7313428D02*
X10528333Y-7294381D01*
X10528333Y-7294381D02*
X10518810Y-7256286D01*
X10518810Y-7256286D02*
X10518810Y-7208667D01*
X10518810Y-7208667D02*
X10528333Y-7170571D01*
X10528333Y-7170571D02*
X10537857Y-7151524D01*
X10537857Y-7151524D02*
X10547381Y-7142000D01*
X10547381Y-7142000D02*
X10566429Y-7132476D01*
X10756905Y-7132476D02*
X10775952Y-7132476D01*
X10775952Y-7132476D02*
X10795000Y-7142000D01*
X10795000Y-7142000D02*
X10804524Y-7151524D01*
X10804524Y-7151524D02*
X10814048Y-7170571D01*
X10814048Y-7170571D02*
X10823571Y-7208667D01*
X10823571Y-7208667D02*
X10823571Y-7256286D01*
X10823571Y-7256286D02*
X10814048Y-7294381D01*
X10814048Y-7294381D02*
X10804524Y-7313428D01*
X10804524Y-7313428D02*
X10795000Y-7322952D01*
X10795000Y-7322952D02*
X10775952Y-7332476D01*
X10775952Y-7332476D02*
X10756905Y-7332476D01*
X10756905Y-7332476D02*
X10737857Y-7322952D01*
X10737857Y-7322952D02*
X10728333Y-7313428D01*
X10728333Y-7313428D02*
X10718810Y-7294381D01*
X10718810Y-7294381D02*
X10709286Y-7256286D01*
X10709286Y-7256286D02*
X10709286Y-7208667D01*
X10709286Y-7208667D02*
X10718810Y-7170571D01*
X10718810Y-7170571D02*
X10728333Y-7151524D01*
X10728333Y-7151524D02*
X10737857Y-7142000D01*
X10737857Y-7142000D02*
X10756905Y-7132476D01*
X10947381Y-7132476D02*
X10966429Y-7132476D01*
X10966429Y-7132476D02*
X10985476Y-7142000D01*
X10985476Y-7142000D02*
X10995000Y-7151524D01*
X10995000Y-7151524D02*
X11004524Y-7170571D01*
X11004524Y-7170571D02*
X11014048Y-7208667D01*
X11014048Y-7208667D02*
X11014048Y-7256286D01*
X11014048Y-7256286D02*
X11004524Y-7294381D01*
X11004524Y-7294381D02*
X10995000Y-7313428D01*
X10995000Y-7313428D02*
X10985476Y-7322952D01*
X10985476Y-7322952D02*
X10966429Y-7332476D01*
X10966429Y-7332476D02*
X10947381Y-7332476D01*
X10947381Y-7332476D02*
X10928333Y-7322952D01*
X10928333Y-7322952D02*
X10918810Y-7313428D01*
X10918810Y-7313428D02*
X10909286Y-7294381D01*
X10909286Y-7294381D02*
X10899762Y-7256286D01*
X10899762Y-7256286D02*
X10899762Y-7208667D01*
X10899762Y-7208667D02*
X10909286Y-7170571D01*
X10909286Y-7170571D02*
X10918810Y-7151524D01*
X10918810Y-7151524D02*
X10928333Y-7142000D01*
X10928333Y-7142000D02*
X10947381Y-7132476D01*
X11099762Y-7332476D02*
X11099762Y-7199143D01*
X11099762Y-7218190D02*
X11109286Y-7208667D01*
X11109286Y-7208667D02*
X11128333Y-7199143D01*
X11128333Y-7199143D02*
X11156905Y-7199143D01*
X11156905Y-7199143D02*
X11175952Y-7208667D01*
X11175952Y-7208667D02*
X11185476Y-7227714D01*
X11185476Y-7227714D02*
X11185476Y-7332476D01*
X11185476Y-7227714D02*
X11195000Y-7208667D01*
X11195000Y-7208667D02*
X11214048Y-7199143D01*
X11214048Y-7199143D02*
X11242619Y-7199143D01*
X11242619Y-7199143D02*
X11261667Y-7208667D01*
X11261667Y-7208667D02*
X11271190Y-7227714D01*
X11271190Y-7227714D02*
X11271190Y-7332476D01*
X11366429Y-7332476D02*
X11366429Y-7199143D01*
X11366429Y-7218190D02*
X11375952Y-7208667D01*
X11375952Y-7208667D02*
X11395000Y-7199143D01*
X11395000Y-7199143D02*
X11423571Y-7199143D01*
X11423571Y-7199143D02*
X11442619Y-7208667D01*
X11442619Y-7208667D02*
X11452143Y-7227714D01*
X11452143Y-7227714D02*
X11452143Y-7332476D01*
X11452143Y-7227714D02*
X11461667Y-7208667D01*
X11461667Y-7208667D02*
X11480714Y-7199143D01*
X11480714Y-7199143D02*
X11509286Y-7199143D01*
X11509286Y-7199143D02*
X11528333Y-7208667D01*
X11528333Y-7208667D02*
X11537857Y-7227714D01*
X11537857Y-7227714D02*
X11537857Y-7332476D01*
X11895952Y-7122952D02*
X11724524Y-7380095D01*
X12120714Y-7132476D02*
X12139762Y-7132476D01*
X12139762Y-7132476D02*
X12158810Y-7142000D01*
X12158810Y-7142000D02*
X12168333Y-7151524D01*
X12168333Y-7151524D02*
X12177857Y-7170571D01*
X12177857Y-7170571D02*
X12187381Y-7208667D01*
X12187381Y-7208667D02*
X12187381Y-7256286D01*
X12187381Y-7256286D02*
X12177857Y-7294381D01*
X12177857Y-7294381D02*
X12168333Y-7313428D01*
X12168333Y-7313428D02*
X12158810Y-7322952D01*
X12158810Y-7322952D02*
X12139762Y-7332476D01*
X12139762Y-7332476D02*
X12120714Y-7332476D01*
X12120714Y-7332476D02*
X12101667Y-7322952D01*
X12101667Y-7322952D02*
X12092143Y-7313428D01*
X12092143Y-7313428D02*
X12082619Y-7294381D01*
X12082619Y-7294381D02*
X12073095Y-7256286D01*
X12073095Y-7256286D02*
X12073095Y-7208667D01*
X12073095Y-7208667D02*
X12082619Y-7170571D01*
X12082619Y-7170571D02*
X12092143Y-7151524D01*
X12092143Y-7151524D02*
X12101667Y-7142000D01*
X12101667Y-7142000D02*
X12120714Y-7132476D01*
X12273095Y-7313428D02*
X12282619Y-7322952D01*
X12282619Y-7322952D02*
X12273095Y-7332476D01*
X12273095Y-7332476D02*
X12263571Y-7322952D01*
X12263571Y-7322952D02*
X12273095Y-7313428D01*
X12273095Y-7313428D02*
X12273095Y-7332476D01*
X12406429Y-7132476D02*
X12425476Y-7132476D01*
X12425476Y-7132476D02*
X12444524Y-7142000D01*
X12444524Y-7142000D02*
X12454048Y-7151524D01*
X12454048Y-7151524D02*
X12463571Y-7170571D01*
X12463571Y-7170571D02*
X12473095Y-7208667D01*
X12473095Y-7208667D02*
X12473095Y-7256286D01*
X12473095Y-7256286D02*
X12463571Y-7294381D01*
X12463571Y-7294381D02*
X12454048Y-7313428D01*
X12454048Y-7313428D02*
X12444524Y-7322952D01*
X12444524Y-7322952D02*
X12425476Y-7332476D01*
X12425476Y-7332476D02*
X12406429Y-7332476D01*
X12406429Y-7332476D02*
X12387381Y-7322952D01*
X12387381Y-7322952D02*
X12377857Y-7313428D01*
X12377857Y-7313428D02*
X12368333Y-7294381D01*
X12368333Y-7294381D02*
X12358810Y-7256286D01*
X12358810Y-7256286D02*
X12358810Y-7208667D01*
X12358810Y-7208667D02*
X12368333Y-7170571D01*
X12368333Y-7170571D02*
X12377857Y-7151524D01*
X12377857Y-7151524D02*
X12387381Y-7142000D01*
X12387381Y-7142000D02*
X12406429Y-7132476D01*
X12539762Y-7132476D02*
X12663571Y-7132476D01*
X12663571Y-7132476D02*
X12596905Y-7208667D01*
X12596905Y-7208667D02*
X12625476Y-7208667D01*
X12625476Y-7208667D02*
X12644524Y-7218190D01*
X12644524Y-7218190D02*
X12654048Y-7227714D01*
X12654048Y-7227714D02*
X12663571Y-7246762D01*
X12663571Y-7246762D02*
X12663571Y-7294381D01*
X12663571Y-7294381D02*
X12654048Y-7313428D01*
X12654048Y-7313428D02*
X12644524Y-7322952D01*
X12644524Y-7322952D02*
X12625476Y-7332476D01*
X12625476Y-7332476D02*
X12568333Y-7332476D01*
X12568333Y-7332476D02*
X12549286Y-7322952D01*
X12549286Y-7322952D02*
X12539762Y-7313428D01*
X12758810Y-7332476D02*
X12796905Y-7332476D01*
X12796905Y-7332476D02*
X12815952Y-7322952D01*
X12815952Y-7322952D02*
X12825476Y-7313428D01*
X12825476Y-7313428D02*
X12844524Y-7284857D01*
X12844524Y-7284857D02*
X12854048Y-7246762D01*
X12854048Y-7246762D02*
X12854048Y-7170571D01*
X12854048Y-7170571D02*
X12844524Y-7151524D01*
X12844524Y-7151524D02*
X12835000Y-7142000D01*
X12835000Y-7142000D02*
X12815952Y-7132476D01*
X12815952Y-7132476D02*
X12777857Y-7132476D01*
X12777857Y-7132476D02*
X12758810Y-7142000D01*
X12758810Y-7142000D02*
X12749286Y-7151524D01*
X12749286Y-7151524D02*
X12739762Y-7170571D01*
X12739762Y-7170571D02*
X12739762Y-7218190D01*
X12739762Y-7218190D02*
X12749286Y-7237238D01*
X12749286Y-7237238D02*
X12758810Y-7246762D01*
X12758810Y-7246762D02*
X12777857Y-7256286D01*
X12777857Y-7256286D02*
X12815952Y-7256286D01*
X12815952Y-7256286D02*
X12835000Y-7246762D01*
X12835000Y-7246762D02*
X12844524Y-7237238D01*
X12844524Y-7237238D02*
X12854048Y-7218190D01*
X13025476Y-7199143D02*
X13025476Y-7332476D01*
X12977857Y-7122952D02*
X12930238Y-7265809D01*
X12930238Y-7265809D02*
X13054048Y-7265809D01*
X13120714Y-7132476D02*
X13120714Y-7170571D01*
X13196905Y-7132476D02*
X13196905Y-7170571D01*
X13459762Y-7408667D02*
X13450238Y-7399143D01*
X13450238Y-7399143D02*
X13431191Y-7370571D01*
X13431191Y-7370571D02*
X13421667Y-7351524D01*
X13421667Y-7351524D02*
X13412143Y-7322952D01*
X13412143Y-7322952D02*
X13402619Y-7275333D01*
X13402619Y-7275333D02*
X13402619Y-7237238D01*
X13402619Y-7237238D02*
X13412143Y-7189619D01*
X13412143Y-7189619D02*
X13421667Y-7161048D01*
X13421667Y-7161048D02*
X13431191Y-7142000D01*
X13431191Y-7142000D02*
X13450238Y-7113428D01*
X13450238Y-7113428D02*
X13459762Y-7103905D01*
X13640714Y-7332476D02*
X13526429Y-7332476D01*
X13583571Y-7332476D02*
X13583571Y-7132476D01*
X13583571Y-7132476D02*
X13564524Y-7161048D01*
X13564524Y-7161048D02*
X13545476Y-7180095D01*
X13545476Y-7180095D02*
X13526429Y-7189619D01*
X13812143Y-7199143D02*
X13812143Y-7332476D01*
X13764524Y-7122952D02*
X13716905Y-7265809D01*
X13716905Y-7265809D02*
X13840714Y-7265809D01*
X14036905Y-7332476D02*
X14036905Y-7132476D01*
X14122619Y-7332476D02*
X14122619Y-7227714D01*
X14122619Y-7227714D02*
X14113095Y-7208667D01*
X14113095Y-7208667D02*
X14094048Y-7199143D01*
X14094048Y-7199143D02*
X14065476Y-7199143D01*
X14065476Y-7199143D02*
X14046429Y-7208667D01*
X14046429Y-7208667D02*
X14036905Y-7218190D01*
X14246429Y-7332476D02*
X14227381Y-7322952D01*
X14227381Y-7322952D02*
X14217857Y-7313428D01*
X14217857Y-7313428D02*
X14208333Y-7294381D01*
X14208333Y-7294381D02*
X14208333Y-7237238D01*
X14208333Y-7237238D02*
X14217857Y-7218190D01*
X14217857Y-7218190D02*
X14227381Y-7208667D01*
X14227381Y-7208667D02*
X14246429Y-7199143D01*
X14246429Y-7199143D02*
X14275000Y-7199143D01*
X14275000Y-7199143D02*
X14294048Y-7208667D01*
X14294048Y-7208667D02*
X14303572Y-7218190D01*
X14303572Y-7218190D02*
X14313095Y-7237238D01*
X14313095Y-7237238D02*
X14313095Y-7294381D01*
X14313095Y-7294381D02*
X14303572Y-7313428D01*
X14303572Y-7313428D02*
X14294048Y-7322952D01*
X14294048Y-7322952D02*
X14275000Y-7332476D01*
X14275000Y-7332476D02*
X14246429Y-7332476D01*
X14427381Y-7332476D02*
X14408333Y-7322952D01*
X14408333Y-7322952D02*
X14398810Y-7303905D01*
X14398810Y-7303905D02*
X14398810Y-7132476D01*
X14579762Y-7322952D02*
X14560714Y-7332476D01*
X14560714Y-7332476D02*
X14522619Y-7332476D01*
X14522619Y-7332476D02*
X14503572Y-7322952D01*
X14503572Y-7322952D02*
X14494048Y-7303905D01*
X14494048Y-7303905D02*
X14494048Y-7227714D01*
X14494048Y-7227714D02*
X14503572Y-7208667D01*
X14503572Y-7208667D02*
X14522619Y-7199143D01*
X14522619Y-7199143D02*
X14560714Y-7199143D01*
X14560714Y-7199143D02*
X14579762Y-7208667D01*
X14579762Y-7208667D02*
X14589286Y-7227714D01*
X14589286Y-7227714D02*
X14589286Y-7246762D01*
X14589286Y-7246762D02*
X14494048Y-7265809D01*
X14665476Y-7322952D02*
X14684524Y-7332476D01*
X14684524Y-7332476D02*
X14722619Y-7332476D01*
X14722619Y-7332476D02*
X14741667Y-7322952D01*
X14741667Y-7322952D02*
X14751191Y-7303905D01*
X14751191Y-7303905D02*
X14751191Y-7294381D01*
X14751191Y-7294381D02*
X14741667Y-7275333D01*
X14741667Y-7275333D02*
X14722619Y-7265809D01*
X14722619Y-7265809D02*
X14694048Y-7265809D01*
X14694048Y-7265809D02*
X14675000Y-7256286D01*
X14675000Y-7256286D02*
X14665476Y-7237238D01*
X14665476Y-7237238D02*
X14665476Y-7227714D01*
X14665476Y-7227714D02*
X14675000Y-7208667D01*
X14675000Y-7208667D02*
X14694048Y-7199143D01*
X14694048Y-7199143D02*
X14722619Y-7199143D01*
X14722619Y-7199143D02*
X14741667Y-7208667D01*
X14817857Y-7408667D02*
X14827381Y-7399143D01*
X14827381Y-7399143D02*
X14846429Y-7370571D01*
X14846429Y-7370571D02*
X14855953Y-7351524D01*
X14855953Y-7351524D02*
X14865476Y-7322952D01*
X14865476Y-7322952D02*
X14875000Y-7275333D01*
X14875000Y-7275333D02*
X14875000Y-7237238D01*
X14875000Y-7237238D02*
X14865476Y-7189619D01*
X14865476Y-7189619D02*
X14855953Y-7161048D01*
X14855953Y-7161048D02*
X14846429Y-7142000D01*
X14846429Y-7142000D02*
X14827381Y-7113428D01*
X14827381Y-7113428D02*
X14817857Y-7103905D01*
D13*
X9944000Y-7472000D02*
X9944000Y-7574000D01*
X9893000Y-7523000D02*
X9995000Y-7523000D01*
D11*
X10347381Y-7596476D02*
X10233095Y-7596476D01*
X10290238Y-7596476D02*
X10290238Y-7396476D01*
X10290238Y-7396476D02*
X10271190Y-7425048D01*
X10271190Y-7425048D02*
X10252143Y-7444095D01*
X10252143Y-7444095D02*
X10233095Y-7453619D01*
X10433095Y-7577428D02*
X10442619Y-7586952D01*
X10442619Y-7586952D02*
X10433095Y-7596476D01*
X10433095Y-7596476D02*
X10423571Y-7586952D01*
X10423571Y-7586952D02*
X10433095Y-7577428D01*
X10433095Y-7577428D02*
X10433095Y-7596476D01*
X10566429Y-7396476D02*
X10585476Y-7396476D01*
X10585476Y-7396476D02*
X10604524Y-7406000D01*
X10604524Y-7406000D02*
X10614048Y-7415524D01*
X10614048Y-7415524D02*
X10623571Y-7434571D01*
X10623571Y-7434571D02*
X10633095Y-7472667D01*
X10633095Y-7472667D02*
X10633095Y-7520286D01*
X10633095Y-7520286D02*
X10623571Y-7558381D01*
X10623571Y-7558381D02*
X10614048Y-7577428D01*
X10614048Y-7577428D02*
X10604524Y-7586952D01*
X10604524Y-7586952D02*
X10585476Y-7596476D01*
X10585476Y-7596476D02*
X10566429Y-7596476D01*
X10566429Y-7596476D02*
X10547381Y-7586952D01*
X10547381Y-7586952D02*
X10537857Y-7577428D01*
X10537857Y-7577428D02*
X10528333Y-7558381D01*
X10528333Y-7558381D02*
X10518810Y-7520286D01*
X10518810Y-7520286D02*
X10518810Y-7472667D01*
X10518810Y-7472667D02*
X10528333Y-7434571D01*
X10528333Y-7434571D02*
X10537857Y-7415524D01*
X10537857Y-7415524D02*
X10547381Y-7406000D01*
X10547381Y-7406000D02*
X10566429Y-7396476D01*
X10709286Y-7415524D02*
X10718810Y-7406000D01*
X10718810Y-7406000D02*
X10737857Y-7396476D01*
X10737857Y-7396476D02*
X10785476Y-7396476D01*
X10785476Y-7396476D02*
X10804524Y-7406000D01*
X10804524Y-7406000D02*
X10814048Y-7415524D01*
X10814048Y-7415524D02*
X10823571Y-7434571D01*
X10823571Y-7434571D02*
X10823571Y-7453619D01*
X10823571Y-7453619D02*
X10814048Y-7482190D01*
X10814048Y-7482190D02*
X10699762Y-7596476D01*
X10699762Y-7596476D02*
X10823571Y-7596476D01*
X10947381Y-7396476D02*
X10966429Y-7396476D01*
X10966429Y-7396476D02*
X10985476Y-7406000D01*
X10985476Y-7406000D02*
X10995000Y-7415524D01*
X10995000Y-7415524D02*
X11004524Y-7434571D01*
X11004524Y-7434571D02*
X11014048Y-7472667D01*
X11014048Y-7472667D02*
X11014048Y-7520286D01*
X11014048Y-7520286D02*
X11004524Y-7558381D01*
X11004524Y-7558381D02*
X10995000Y-7577428D01*
X10995000Y-7577428D02*
X10985476Y-7586952D01*
X10985476Y-7586952D02*
X10966429Y-7596476D01*
X10966429Y-7596476D02*
X10947381Y-7596476D01*
X10947381Y-7596476D02*
X10928333Y-7586952D01*
X10928333Y-7586952D02*
X10918810Y-7577428D01*
X10918810Y-7577428D02*
X10909286Y-7558381D01*
X10909286Y-7558381D02*
X10899762Y-7520286D01*
X10899762Y-7520286D02*
X10899762Y-7472667D01*
X10899762Y-7472667D02*
X10909286Y-7434571D01*
X10909286Y-7434571D02*
X10918810Y-7415524D01*
X10918810Y-7415524D02*
X10928333Y-7406000D01*
X10928333Y-7406000D02*
X10947381Y-7396476D01*
X11099762Y-7596476D02*
X11099762Y-7463143D01*
X11099762Y-7482190D02*
X11109286Y-7472667D01*
X11109286Y-7472667D02*
X11128333Y-7463143D01*
X11128333Y-7463143D02*
X11156905Y-7463143D01*
X11156905Y-7463143D02*
X11175952Y-7472667D01*
X11175952Y-7472667D02*
X11185476Y-7491714D01*
X11185476Y-7491714D02*
X11185476Y-7596476D01*
X11185476Y-7491714D02*
X11195000Y-7472667D01*
X11195000Y-7472667D02*
X11214048Y-7463143D01*
X11214048Y-7463143D02*
X11242619Y-7463143D01*
X11242619Y-7463143D02*
X11261667Y-7472667D01*
X11261667Y-7472667D02*
X11271190Y-7491714D01*
X11271190Y-7491714D02*
X11271190Y-7596476D01*
X11366429Y-7596476D02*
X11366429Y-7463143D01*
X11366429Y-7482190D02*
X11375952Y-7472667D01*
X11375952Y-7472667D02*
X11395000Y-7463143D01*
X11395000Y-7463143D02*
X11423571Y-7463143D01*
X11423571Y-7463143D02*
X11442619Y-7472667D01*
X11442619Y-7472667D02*
X11452143Y-7491714D01*
X11452143Y-7491714D02*
X11452143Y-7596476D01*
X11452143Y-7491714D02*
X11461667Y-7472667D01*
X11461667Y-7472667D02*
X11480714Y-7463143D01*
X11480714Y-7463143D02*
X11509286Y-7463143D01*
X11509286Y-7463143D02*
X11528333Y-7472667D01*
X11528333Y-7472667D02*
X11537857Y-7491714D01*
X11537857Y-7491714D02*
X11537857Y-7596476D01*
X11895952Y-7386952D02*
X11724524Y-7644095D01*
X12120714Y-7396476D02*
X12139762Y-7396476D01*
X12139762Y-7396476D02*
X12158810Y-7406000D01*
X12158810Y-7406000D02*
X12168333Y-7415524D01*
X12168333Y-7415524D02*
X12177857Y-7434571D01*
X12177857Y-7434571D02*
X12187381Y-7472667D01*
X12187381Y-7472667D02*
X12187381Y-7520286D01*
X12187381Y-7520286D02*
X12177857Y-7558381D01*
X12177857Y-7558381D02*
X12168333Y-7577428D01*
X12168333Y-7577428D02*
X12158810Y-7586952D01*
X12158810Y-7586952D02*
X12139762Y-7596476D01*
X12139762Y-7596476D02*
X12120714Y-7596476D01*
X12120714Y-7596476D02*
X12101667Y-7586952D01*
X12101667Y-7586952D02*
X12092143Y-7577428D01*
X12092143Y-7577428D02*
X12082619Y-7558381D01*
X12082619Y-7558381D02*
X12073095Y-7520286D01*
X12073095Y-7520286D02*
X12073095Y-7472667D01*
X12073095Y-7472667D02*
X12082619Y-7434571D01*
X12082619Y-7434571D02*
X12092143Y-7415524D01*
X12092143Y-7415524D02*
X12101667Y-7406000D01*
X12101667Y-7406000D02*
X12120714Y-7396476D01*
X12273095Y-7577428D02*
X12282619Y-7586952D01*
X12282619Y-7586952D02*
X12273095Y-7596476D01*
X12273095Y-7596476D02*
X12263571Y-7586952D01*
X12263571Y-7586952D02*
X12273095Y-7577428D01*
X12273095Y-7577428D02*
X12273095Y-7596476D01*
X12406429Y-7396476D02*
X12425476Y-7396476D01*
X12425476Y-7396476D02*
X12444524Y-7406000D01*
X12444524Y-7406000D02*
X12454048Y-7415524D01*
X12454048Y-7415524D02*
X12463571Y-7434571D01*
X12463571Y-7434571D02*
X12473095Y-7472667D01*
X12473095Y-7472667D02*
X12473095Y-7520286D01*
X12473095Y-7520286D02*
X12463571Y-7558381D01*
X12463571Y-7558381D02*
X12454048Y-7577428D01*
X12454048Y-7577428D02*
X12444524Y-7586952D01*
X12444524Y-7586952D02*
X12425476Y-7596476D01*
X12425476Y-7596476D02*
X12406429Y-7596476D01*
X12406429Y-7596476D02*
X12387381Y-7586952D01*
X12387381Y-7586952D02*
X12377857Y-7577428D01*
X12377857Y-7577428D02*
X12368333Y-7558381D01*
X12368333Y-7558381D02*
X12358810Y-7520286D01*
X12358810Y-7520286D02*
X12358810Y-7472667D01*
X12358810Y-7472667D02*
X12368333Y-7434571D01*
X12368333Y-7434571D02*
X12377857Y-7415524D01*
X12377857Y-7415524D02*
X12387381Y-7406000D01*
X12387381Y-7406000D02*
X12406429Y-7396476D01*
X12644524Y-7463143D02*
X12644524Y-7596476D01*
X12596905Y-7386952D02*
X12549286Y-7529809D01*
X12549286Y-7529809D02*
X12673095Y-7529809D01*
X12787381Y-7396476D02*
X12806429Y-7396476D01*
X12806429Y-7396476D02*
X12825476Y-7406000D01*
X12825476Y-7406000D02*
X12835000Y-7415524D01*
X12835000Y-7415524D02*
X12844524Y-7434571D01*
X12844524Y-7434571D02*
X12854048Y-7472667D01*
X12854048Y-7472667D02*
X12854048Y-7520286D01*
X12854048Y-7520286D02*
X12844524Y-7558381D01*
X12844524Y-7558381D02*
X12835000Y-7577428D01*
X12835000Y-7577428D02*
X12825476Y-7586952D01*
X12825476Y-7586952D02*
X12806429Y-7596476D01*
X12806429Y-7596476D02*
X12787381Y-7596476D01*
X12787381Y-7596476D02*
X12768333Y-7586952D01*
X12768333Y-7586952D02*
X12758810Y-7577428D01*
X12758810Y-7577428D02*
X12749286Y-7558381D01*
X12749286Y-7558381D02*
X12739762Y-7520286D01*
X12739762Y-7520286D02*
X12739762Y-7472667D01*
X12739762Y-7472667D02*
X12749286Y-7434571D01*
X12749286Y-7434571D02*
X12758810Y-7415524D01*
X12758810Y-7415524D02*
X12768333Y-7406000D01*
X12768333Y-7406000D02*
X12787381Y-7396476D01*
X12930238Y-7415524D02*
X12939762Y-7406000D01*
X12939762Y-7406000D02*
X12958810Y-7396476D01*
X12958810Y-7396476D02*
X13006429Y-7396476D01*
X13006429Y-7396476D02*
X13025476Y-7406000D01*
X13025476Y-7406000D02*
X13035000Y-7415524D01*
X13035000Y-7415524D02*
X13044524Y-7434571D01*
X13044524Y-7434571D02*
X13044524Y-7453619D01*
X13044524Y-7453619D02*
X13035000Y-7482190D01*
X13035000Y-7482190D02*
X12920714Y-7596476D01*
X12920714Y-7596476D02*
X13044524Y-7596476D01*
X13120714Y-7396476D02*
X13120714Y-7434571D01*
X13196905Y-7396476D02*
X13196905Y-7434571D01*
X13459762Y-7672667D02*
X13450238Y-7663143D01*
X13450238Y-7663143D02*
X13431191Y-7634571D01*
X13431191Y-7634571D02*
X13421667Y-7615524D01*
X13421667Y-7615524D02*
X13412143Y-7586952D01*
X13412143Y-7586952D02*
X13402619Y-7539333D01*
X13402619Y-7539333D02*
X13402619Y-7501238D01*
X13402619Y-7501238D02*
X13412143Y-7453619D01*
X13412143Y-7453619D02*
X13421667Y-7425048D01*
X13421667Y-7425048D02*
X13431191Y-7406000D01*
X13431191Y-7406000D02*
X13450238Y-7377428D01*
X13450238Y-7377428D02*
X13459762Y-7367905D01*
X13516905Y-7396476D02*
X13640714Y-7396476D01*
X13640714Y-7396476D02*
X13574048Y-7472667D01*
X13574048Y-7472667D02*
X13602619Y-7472667D01*
X13602619Y-7472667D02*
X13621667Y-7482190D01*
X13621667Y-7482190D02*
X13631191Y-7491714D01*
X13631191Y-7491714D02*
X13640714Y-7510762D01*
X13640714Y-7510762D02*
X13640714Y-7558381D01*
X13640714Y-7558381D02*
X13631191Y-7577428D01*
X13631191Y-7577428D02*
X13621667Y-7586952D01*
X13621667Y-7586952D02*
X13602619Y-7596476D01*
X13602619Y-7596476D02*
X13545476Y-7596476D01*
X13545476Y-7596476D02*
X13526429Y-7586952D01*
X13526429Y-7586952D02*
X13516905Y-7577428D01*
X13846429Y-7596476D02*
X13846429Y-7396476D01*
X13932143Y-7596476D02*
X13932143Y-7491714D01*
X13932143Y-7491714D02*
X13922619Y-7472667D01*
X13922619Y-7472667D02*
X13903572Y-7463143D01*
X13903572Y-7463143D02*
X13875000Y-7463143D01*
X13875000Y-7463143D02*
X13855952Y-7472667D01*
X13855952Y-7472667D02*
X13846429Y-7482190D01*
X14055952Y-7596476D02*
X14036905Y-7586952D01*
X14036905Y-7586952D02*
X14027381Y-7577428D01*
X14027381Y-7577428D02*
X14017857Y-7558381D01*
X14017857Y-7558381D02*
X14017857Y-7501238D01*
X14017857Y-7501238D02*
X14027381Y-7482190D01*
X14027381Y-7482190D02*
X14036905Y-7472667D01*
X14036905Y-7472667D02*
X14055952Y-7463143D01*
X14055952Y-7463143D02*
X14084524Y-7463143D01*
X14084524Y-7463143D02*
X14103572Y-7472667D01*
X14103572Y-7472667D02*
X14113095Y-7482190D01*
X14113095Y-7482190D02*
X14122619Y-7501238D01*
X14122619Y-7501238D02*
X14122619Y-7558381D01*
X14122619Y-7558381D02*
X14113095Y-7577428D01*
X14113095Y-7577428D02*
X14103572Y-7586952D01*
X14103572Y-7586952D02*
X14084524Y-7596476D01*
X14084524Y-7596476D02*
X14055952Y-7596476D01*
X14236905Y-7596476D02*
X14217857Y-7586952D01*
X14217857Y-7586952D02*
X14208333Y-7567905D01*
X14208333Y-7567905D02*
X14208333Y-7396476D01*
X14389286Y-7586952D02*
X14370238Y-7596476D01*
X14370238Y-7596476D02*
X14332143Y-7596476D01*
X14332143Y-7596476D02*
X14313095Y-7586952D01*
X14313095Y-7586952D02*
X14303572Y-7567905D01*
X14303572Y-7567905D02*
X14303572Y-7491714D01*
X14303572Y-7491714D02*
X14313095Y-7472667D01*
X14313095Y-7472667D02*
X14332143Y-7463143D01*
X14332143Y-7463143D02*
X14370238Y-7463143D01*
X14370238Y-7463143D02*
X14389286Y-7472667D01*
X14389286Y-7472667D02*
X14398810Y-7491714D01*
X14398810Y-7491714D02*
X14398810Y-7510762D01*
X14398810Y-7510762D02*
X14303572Y-7529809D01*
X14475000Y-7586952D02*
X14494048Y-7596476D01*
X14494048Y-7596476D02*
X14532143Y-7596476D01*
X14532143Y-7596476D02*
X14551191Y-7586952D01*
X14551191Y-7586952D02*
X14560714Y-7567905D01*
X14560714Y-7567905D02*
X14560714Y-7558381D01*
X14560714Y-7558381D02*
X14551191Y-7539333D01*
X14551191Y-7539333D02*
X14532143Y-7529809D01*
X14532143Y-7529809D02*
X14503572Y-7529809D01*
X14503572Y-7529809D02*
X14484524Y-7520286D01*
X14484524Y-7520286D02*
X14475000Y-7501238D01*
X14475000Y-7501238D02*
X14475000Y-7491714D01*
X14475000Y-7491714D02*
X14484524Y-7472667D01*
X14484524Y-7472667D02*
X14503572Y-7463143D01*
X14503572Y-7463143D02*
X14532143Y-7463143D01*
X14532143Y-7463143D02*
X14551191Y-7472667D01*
X14627381Y-7672667D02*
X14636905Y-7663143D01*
X14636905Y-7663143D02*
X14655953Y-7634571D01*
X14655953Y-7634571D02*
X14665476Y-7615524D01*
X14665476Y-7615524D02*
X14675000Y-7586952D01*
X14675000Y-7586952D02*
X14684524Y-7539333D01*
X14684524Y-7539333D02*
X14684524Y-7501238D01*
X14684524Y-7501238D02*
X14675000Y-7453619D01*
X14675000Y-7453619D02*
X14665476Y-7425048D01*
X14665476Y-7425048D02*
X14655953Y-7406000D01*
X14655953Y-7406000D02*
X14636905Y-7377428D01*
X14636905Y-7377428D02*
X14627381Y-7367905D01*
M02*
