G04 #@! TF.GenerationSoftware,KiCad,Pcbnew,(7.0.0)*
G04 #@! TF.CreationDate,2023-03-25T16:30:21+01:00*
G04 #@! TF.ProjectId,PowerPCB,506f7765-7250-4434-922e-6b696361645f,rev?*
G04 #@! TF.SameCoordinates,Original*
G04 #@! TF.FileFunction,Soldermask,Top*
G04 #@! TF.FilePolarity,Negative*
%FSLAX46Y46*%
G04 Gerber Fmt 4.6, Leading zero omitted, Abs format (unit mm)*
G04 Created by KiCad (PCBNEW (7.0.0)) date 2023-03-25 16:30:21*
%MOMM*%
%LPD*%
G01*
G04 APERTURE LIST*
G04 Aperture macros list*
%AMRoundRect*
0 Rectangle with rounded corners*
0 $1 Rounding radius*
0 $2 $3 $4 $5 $6 $7 $8 $9 X,Y pos of 4 corners*
0 Add a 4 corners polygon primitive as box body*
4,1,4,$2,$3,$4,$5,$6,$7,$8,$9,$2,$3,0*
0 Add four circle primitives for the rounded corners*
1,1,$1+$1,$2,$3*
1,1,$1+$1,$4,$5*
1,1,$1+$1,$6,$7*
1,1,$1+$1,$8,$9*
0 Add four rect primitives between the rounded corners*
20,1,$1+$1,$2,$3,$4,$5,0*
20,1,$1+$1,$4,$5,$6,$7,0*
20,1,$1+$1,$6,$7,$8,$9,0*
20,1,$1+$1,$8,$9,$2,$3,0*%
G04 Aperture macros list end*
%ADD10RoundRect,0.150000X0.587500X0.150000X-0.587500X0.150000X-0.587500X-0.150000X0.587500X-0.150000X0*%
%ADD11RoundRect,0.250000X-0.300000X-0.300000X0.300000X-0.300000X0.300000X0.300000X-0.300000X0.300000X0*%
%ADD12C,2.700000*%
%ADD13RoundRect,0.150000X0.150000X-0.512500X0.150000X0.512500X-0.150000X0.512500X-0.150000X-0.512500X0*%
%ADD14RoundRect,0.250000X-0.262500X-0.450000X0.262500X-0.450000X0.262500X0.450000X-0.262500X0.450000X0*%
%ADD15RoundRect,0.250000X-0.750000X0.600000X-0.750000X-0.600000X0.750000X-0.600000X0.750000X0.600000X0*%
%ADD16O,2.000000X1.700000*%
%ADD17RoundRect,0.150000X0.150000X-0.587500X0.150000X0.587500X-0.150000X0.587500X-0.150000X-0.587500X0*%
%ADD18RoundRect,0.250000X0.450000X-0.262500X0.450000X0.262500X-0.450000X0.262500X-0.450000X-0.262500X0*%
%ADD19C,3.000000*%
%ADD20RoundRect,0.250001X0.759999X-0.499999X0.759999X0.499999X-0.759999X0.499999X-0.759999X-0.499999X0*%
%ADD21O,2.020000X1.500000*%
%ADD22RoundRect,0.250000X-0.450000X0.262500X-0.450000X-0.262500X0.450000X-0.262500X0.450000X0.262500X0*%
%ADD23RoundRect,0.250000X0.262500X0.450000X-0.262500X0.450000X-0.262500X-0.450000X0.262500X-0.450000X0*%
%ADD24R,1.700000X1.700000*%
%ADD25O,1.700000X1.700000*%
G04 APERTURE END LIST*
D10*
X114763000Y-61326000D03*
X114763000Y-59426000D03*
X112888000Y-60376000D03*
D11*
X119682000Y-51994000D03*
X122482000Y-51994000D03*
D12*
X103500000Y-47500000D03*
D13*
X112766000Y-56941500D03*
X113716000Y-56941500D03*
X114666000Y-56941500D03*
X114666000Y-54666500D03*
X113716000Y-54666500D03*
X112766000Y-54666500D03*
D14*
X120752750Y-54449250D03*
X122577750Y-54449250D03*
D15*
X128211000Y-57094000D03*
D16*
X128210999Y-59593999D03*
D17*
X120527250Y-60805500D03*
X122427250Y-60805500D03*
X121477250Y-58930500D03*
D18*
X117272000Y-61542500D03*
X117272000Y-59717500D03*
D19*
X105334000Y-56566000D03*
D20*
X109654000Y-59566000D03*
D21*
X109653999Y-56565999D03*
X109653999Y-53565999D03*
D22*
X117272000Y-55399500D03*
X117272000Y-57224500D03*
D23*
X122577750Y-56660000D03*
X120752750Y-56660000D03*
D15*
X128194000Y-47422000D03*
D16*
X128193999Y-49921999D03*
D24*
X108369999Y-48769999D03*
D25*
X108369999Y-46229999D03*
X110909999Y-48769999D03*
X110909999Y-46229999D03*
X113449999Y-48769999D03*
X113449999Y-46229999D03*
X115989999Y-48769999D03*
X115989999Y-46229999D03*
X118529999Y-48769999D03*
X118529999Y-46229999D03*
M02*
